<svg width="190" height="143" viewBox="0 0 190 143" fill="none" xmlns="http://www.w3.org/2000/svg">
<path fill-rule="evenodd" clip-rule="evenodd" d="M122.832 54.3704C121.416 57.15 119.919 59.8558 118.407 62.5848C117.607 64.0295 115.027 70.0047 114.361 70.233C113.643 70.4788 109.247 67.8847 107.985 67.3766C105.744 66.4735 103.613 65.6183 101.271 65.0616C98.6493 64.4378 96.0062 63.9783 93.2863 64.2101C92.0951 64.3117 90.1231 64.6007 91.3071 62.9212C92.1702 61.6966 93.0063 60.5688 94.1786 59.6842C95.0317 59.0399 96.2825 57.8587 97.2815 57.4286C98.3296 56.977 99.8754 57.077 101.002 57.1036C102.22 57.1325 108.024 58.95 108.343 57.0558C108.935 57.5963 109.28 57.3872 109.958 57.6512C110.723 57.9488 111.199 58.5264 111.959 58.8751C112.451 59.1017 113.359 59.9966 113.907 60.002C114.635 60.0093 114.831 59.4043 115.354 58.9578C116.525 57.9572 118.084 57.2988 119.355 56.4292C120.474 55.6634 121.539 54.8652 122.832 54.3704ZM110.081 32.3991C109.981 33.668 110.322 34.847 110.314 36.1528C110.311 36.7226 110.285 37.292 110.457 37.8409C110.612 38.333 110.504 39.2169 110.586 39.7323C109.138 39.2899 106.447 38.6337 104.968 39.2303C103.554 39.8006 103.376 42.4385 103.327 43.7214C103.293 44.596 103.68 45.9431 103.386 46.7803C103.249 47.1707 103.248 47.2968 103.257 47.332L103.258 47.3357C103.23 47.3214 103.117 47.3215 102.716 47.6113C102.319 47.8986 101.846 48.0568 101.453 48.3739C100.74 48.9515 100.618 49.6058 100.266 50.4428C99.9239 51.2557 99.013 51.9782 97.9962 51.9487C98.8135 50.4621 99.9483 49.0739 99.2971 47.3279C98.8057 46.01 99.667 44.4634 100.344 43.2116C100.569 42.7969 103.055 39.6206 101.954 39.3968C101.238 39.2512 99.5958 42.6228 99.2817 43.2116C98.4053 42.6171 98.0118 41.8842 98.6861 40.9888C99.2043 40.3011 99.8402 39.7131 100.344 39.0011C101.163 37.8454 101.961 36.466 102.933 35.4395C104.641 33.6371 107.622 32.4101 110.081 32.3991ZM103.258 47.3357C103.267 47.3422 103.264 47.3487 103.259 47.3389L103.258 47.3357ZM133.03 30.4297C134.121 31.4787 135.501 32.3488 136.556 33.4498C137.479 34.4136 138.722 36.0348 139.16 37.3223C136.91 37.7575 133.172 39.0903 132.276 41.4598C128.777 38.2364 127.423 44.1297 126.729 46.5941C124.681 45.7048 125.089 42.7442 125.116 41.0156C125.137 39.6444 125.97 38.0215 123.986 37.9091C122.503 37.8253 121.063 38.4313 119.726 38.9987C118.057 39.7068 116.307 40.7659 114.959 41.9825L113.555 40.8854C115.858 39.5876 117.059 37.1062 118.407 34.834C118.838 34.1097 119.412 33.3042 119.726 32.5212C119.943 31.9798 120.095 30.8868 120.333 30.4055C120.708 29.6486 124.362 29.4402 125.33 29.2451C127.886 28.7304 130.941 28.4217 133.03 30.4297Z" fill="#D3D6D7"/>
<path fill-rule="evenodd" clip-rule="evenodd" d="M132.447 47.2486C133.391 47.2002 134.331 47.4117 135.276 47.3195L132.817 45.1704C132.454 45.8085 132.428 46.5345 132.447 47.2486ZM110.049 32.5207C107.605 32.5315 104.624 33.7632 102.927 35.5621C102.027 36.5154 101.284 37.7957 100.524 38.8667C100.013 39.5854 99.5151 40.279 98.8959 40.9106C97.9928 41.831 98.2513 42.0414 99.2688 42.7344C99.5908 42.1289 101.298 38.8913 102.014 39.0369C103.101 39.2585 101.001 42.6782 100.772 43.1042C100.092 44.3647 98.9955 46.1254 99.4883 47.4549C100.139 49.2098 99.1957 50.2099 98.3769 51.7052C99.2367 51.7302 99.3214 51.3937 99.6179 50.6577C99.9982 49.7118 100.414 48.9216 101.219 48.2676C101.842 47.7612 102.861 47.548 103.154 46.9365C103.516 46.1807 103.289 44.6884 103.318 43.8475C103.363 42.5698 103.366 39.5495 104.769 38.982C106.239 38.3872 108.882 38.9477 110.319 39.3882C110.139 38.2623 109.574 37.527 109.581 36.2758C109.59 34.966 109.949 33.7975 110.049 32.5207ZM91.2759 53.4151C92.5541 53.0092 93.7659 52.5811 95.081 52.3044C96.4572 52.0147 96.5493 51.6833 97.3251 50.4989C97.9132 49.601 98.6268 48.9013 98.4602 47.8018C98.3534 47.0965 97.9685 46.7529 98.0843 45.9597C98.1559 45.4682 98.3845 44.9315 98.5497 44.464C98.7523 43.8905 99.1722 43.2401 98.196 43.2116C97.657 43.196 97.6306 43.4814 97.2659 43.9605C96.5927 44.8455 95.8179 45.6493 95.1016 46.498C93.8574 47.9716 92.5379 49.5399 91.1491 50.904C89.6202 52.4048 88.3006 54.2152 87.3124 56.1367C87.1298 56.4916 86.02 58.5817 86.4936 58.9915C86.9283 59.368 89.3465 58.4901 89.7876 58.3875C91.6907 57.9442 93.8511 57.7859 95.6492 56.9806C96.5654 56.5702 98.5871 56.0805 99.3108 55.4458C99.9834 54.8555 99.9531 53.4261 99.5627 52.5943C98.4702 53.2764 90.5715 55.8498 91.2759 53.4151ZM115.056 41.6854C116.331 40.5291 117.839 39.6018 119.414 38.9145C120.822 38.2999 122.572 37.6147 124.14 37.7214C126.092 37.8542 125.276 39.4325 125.269 40.7765C125.26 42.5601 124.481 45.1293 126.603 46.0545C127.296 43.5851 128.756 37.7456 132.254 40.9813C133.148 38.6069 136.336 37.8033 138.581 37.3672C138.174 36.1676 136.938 35.0817 136.082 34.1814C135.01 33.0549 134.164 31.7348 133.09 30.6297C130.969 28.4474 127.126 29.1481 124.441 29.6922C123.545 29.8735 120.946 30.1014 120.512 30.7621C120.24 31.1763 120.392 32.1885 120.19 32.6952C119.912 33.393 119.436 34.0401 119.055 34.6847C117.664 37.0369 116.249 39.4044 113.869 40.7514L115.056 41.6854ZM122.84 54.3576C121.58 54.8425 120.654 55.6536 119.537 56.3362C118.183 57.1642 116.594 57.9397 115.379 58.9623C114.934 59.3364 114.684 59.9825 114.07 60.0244C113.536 60.0609 112.723 59.4384 112.249 59.2207C111.455 58.8549 110.696 58.3005 109.898 57.9745C109.243 57.7064 108.952 57.7613 108.385 57.2401C108.066 59.1412 102.276 57.3643 101.061 57.3351C99.937 57.3085 98.3951 57.4422 97.3492 57.8954C96.3526 58.3274 95.5735 59.2779 94.7203 59.9255C93.551 60.8137 92.4351 61.7119 91.574 62.9412C90.3928 64.6268 92.1748 64.1496 93.3633 64.0479C96.0759 63.8152 98.7148 64.4635 101.33 65.0893C103.667 65.6485 105.976 66.3193 108.213 67.2261C109.472 67.7363 110.796 68.2052 111.98 68.868C112.604 69.2177 113.616 70.0735 114.332 69.8269C114.989 69.6007 115.643 67.7117 116.041 66.9576C116.814 65.493 117.627 64.0533 118.425 62.6032C119.933 59.864 121.426 57.1476 122.84 54.3576H122.84ZM107.342 90.6107C108.118 90.1635 109.384 90.2839 110.242 90.0964C111.212 89.8846 112.187 89.5397 113.112 89.1798C114.048 88.8156 114.933 88.443 115.789 87.9872C116.18 87.7788 116.702 87.5737 117.063 87.2845C117.355 87.0514 117.461 86.6183 117.729 86.4069C118.431 85.8552 118.637 86.2014 118.731 85.1371C118.833 83.981 118.186 83.3263 117.382 82.461C116.661 81.6868 115.726 81.0176 114.82 80.4728C114.42 80.2321 113.992 79.9608 113.584 79.731C112.966 79.3828 112.137 78.8037 111.813 79.5513C112.488 79.7243 112.637 80.5903 112.028 80.9012C111.693 81.0722 111.186 80.8212 110.808 81.0027C110.225 81.2831 109.665 82.0659 109.166 82.4871C107.528 83.8705 105.962 84.3895 103.818 84.5006C99.3393 84.7323 94.6491 84.2197 90.2563 83.5536C89.1257 83.382 87.997 83.5678 86.8559 83.5268C85.7456 83.487 84.588 83.2434 83.4966 83.0552C81.3944 82.6928 79.1786 82.3946 77.109 81.8615C74.6059 81.2165 72.0946 80.3823 69.7446 79.302C67.4906 78.2654 64.9429 76.553 62.4111 76.421C63.4915 77.4825 65.1104 77.8914 66.41 78.5907C67.472 79.1618 69.1331 79.5286 69.8042 80.4698C70.241 81.0824 70.4601 82.2076 70.7902 82.926C71.1551 83.721 71.4917 84.5286 71.8296 85.3354C72.169 86.1472 72.5224 86.9594 72.7982 87.7954C72.9687 88.3142 73.0422 89.3896 73.4452 89.7443C74.0881 90.3104 76.2397 90.5618 77.106 90.7498C78.7238 91.1017 80.5689 91.0548 82.2187 91.0792C82.9006 91.0893 83.5879 91.1825 84.2394 91.1952C85.1543 91.2127 85.0671 91.0537 85.0539 90.2568C85.0465 89.7782 85.0561 88.9076 85.694 89.3018C86.1288 89.5704 85.8297 90.7602 85.7491 91.1831C89.3911 91.5471 93.1909 91.7301 96.8155 91.6084C100.38 91.4885 103.821 91.0272 107.342 90.6107ZM123.789 82.2214C124.432 77.5906 125.215 72.8826 126.092 68.3119C126.977 63.693 128.043 59.1161 129.24 54.5146L126.867 53.9452C126.837 54.9147 126.51 55.7569 126.371 56.722C126.179 58.054 125.811 59.3475 125.591 60.6753C125.173 63.199 124.399 65.6686 123.717 68.1297C123.021 70.6388 122.789 73.2237 122.15 75.7454C121.623 77.8228 121.354 80.1112 121.06 82.2469C120.347 87.4282 119.33 92.6196 118.557 97.8035C117.831 102.664 117.759 107.623 117.8 112.528C117.826 115.523 118.281 118.51 118.258 121.508C118.252 122.25 118.314 122.989 118.352 123.729C118.379 124.251 118.1 125.699 118.337 126.136C118.487 126.413 119.132 126.669 119.36 127.053C119.721 127.662 119.797 128.389 120.377 128.849C120.847 126.947 120.625 124.436 120.522 122.495C120.422 120.624 120.615 118.691 120.653 116.791C120.728 113.066 120.924 109.395 121.115 105.667C121.323 101.579 121.917 97.3915 122.497 93.3342C123.023 89.6451 123.375 85.8906 123.789 82.2214ZM106.589 24.1481L105.825 24.0768C105.863 24.6157 105.749 25.4882 106.128 25.7693C106.415 25.9824 106.996 25.9125 107.343 25.9805C108.483 26.2041 109.804 26.3911 110.935 25.9838C111.375 25.8256 111.092 25.5777 111.698 25.6807C112.427 25.8051 112.16 25.9209 112.371 26.3773C112.533 26.7296 112.617 27.3291 112.801 27.752C113.047 28.318 113.547 29.3309 113.333 29.9845C113.126 30.6198 112.352 30.8118 112.022 31.5312C111.777 32.0662 111.835 32.8437 111.708 33.4329C111.539 34.2186 111.324 35.0014 111.23 35.8017C111.11 36.81 111.151 37.9929 112.396 38.1493C113.551 38.2945 114.377 37.9221 115.152 37.0777C116.632 35.4658 118.321 33.1905 119.19 31.1628C119.292 30.9259 119.542 30.5306 119.507 30.277C119.438 29.7754 119.408 30.2832 119.25 29.9348C119.098 29.6017 118.861 29.2995 118.722 28.9299C118.219 27.5978 117.864 26.2145 117.663 24.8047C117.571 24.1679 117.541 23.5389 117.557 22.8959C117.562 22.6762 117.693 22.0171 117.615 21.8668C117.535 21.7145 117.118 21.6443 116.989 21.4931C116.748 21.2129 116.335 20.4217 116.068 20.2121C115.741 19.9542 115.007 20.1585 114.874 19.6457C114.661 18.8253 119.703 17.4889 117.347 16.3941C115.589 15.5767 112.891 19.7088 112.276 16.4574C112.17 15.8942 112.373 15.1298 112.127 14.6135C111.855 14.0432 111.114 13.8298 110.597 13.5522C109.936 13.1984 109.27 12.8345 108.628 12.4469C108.188 12.1812 107.554 11.4757 107.086 11.4111C107.27 12.3687 106.917 13.3179 106.911 14.2737C107.925 13.9981 108.623 13.9923 109.625 14.4822C110.102 14.7153 111.898 16.0386 110.988 16.6751C110.251 16.2375 109.462 15.8582 108.64 15.6007C108.315 15.4992 107.91 15.3613 107.565 15.3542C106.765 15.338 106.878 15.422 106.577 16.0278C106.287 16.6114 106.349 18.1334 105.713 18.5061C105.055 18.8914 105.563 18.352 105.001 18.4763C104.681 18.5477 104.332 18.7867 104.038 18.9217C104.44 19.3593 105.251 19.7591 105.518 20.2452C105.907 20.9541 105.772 22.42 105.833 23.1955C106.342 23.0127 106.877 23.0052 107.393 22.8695C107.878 22.7416 108.551 22.1886 108.601 23.0017C108.658 23.9077 107.23 24.1483 106.589 24.1483L106.589 24.1481ZM113.213 48.0049C113.253 47.222 113.296 46.4392 113.383 45.6594C113.442 45.1358 113.937 43.6172 113.657 43.1573C113.353 42.6569 112.332 42.6251 111.841 42.505C110.899 42.2747 109.996 42.0861 109.039 41.9339C108.159 41.7943 107.33 41.7645 106.443 41.7241C105.477 41.6803 105.238 41.4232 105.024 42.4912C104.856 43.331 104.631 44.2059 104.6 45.0658C104.57 45.873 104.813 46.5736 104.016 47.1177C105.766 47.1177 108.046 45.5536 109.643 46.952C111.928 48.9517 107.952 49.5278 106.904 49.9693C107.775 50.3944 109.069 50.7282 109.479 51.6991C109.94 52.7874 109.271 53.2501 108.249 53.3373C108.345 53.7568 108.714 54.0292 108.823 54.5336C108.984 55.273 108.463 55.0281 109.127 55.6003C110.003 56.3533 111.804 56.8568 112.877 57.3364C113.129 57.4492 113.383 57.5551 113.64 57.6541C114.042 58.0131 114.339 57.9447 114.531 57.4487C115.081 57.099 115.571 56.3188 116.06 55.8651C117.146 54.8551 118.345 53.969 119.636 53.2397C119.101 53.0174 118.461 53.5201 117.947 53.2754C117.532 53.0777 117.689 52.7178 117.44 52.4483C117.54 52.097 117.434 51.9685 117.124 52.0629C116.976 52.0806 116.825 52.0531 116.692 51.984C116.432 51.6609 116.315 51.5552 116.298 51.0563C116.28 50.5272 116.585 50.3404 116.702 49.9168C117.084 49.6561 117.075 49.4001 116.676 49.1491C116.514 48.8854 116.422 48.5843 116.409 48.2745C116.333 47.1071 117.395 46.6367 118.204 46.0193C116.754 45.8594 116.81 44.1529 117.813 43.4069C118.853 42.6335 121.054 42.9502 122.312 43.1247C122.573 43.1606 123.28 43.4991 123.544 43.2833C123.706 43.1511 123.592 42.033 123.599 41.8356C123.616 41.3876 123.725 40.8534 123.653 40.4077C123.505 39.4744 123.82 39.9444 123.151 39.9185C121.557 39.8565 119.528 41.2523 118.127 41.9103C116.558 42.6469 115.549 42.7601 115.533 44.5865C115.517 46.3157 115.034 48.0388 114.823 49.7405C114.731 50.4838 114.665 54.345 113.31 52.92C112.784 52.3674 113.121 51.5175 113.16 50.8359C113.213 49.898 113.181 48.9454 113.213 48.0049ZM25.5626 105.893C26.3382 106.031 27.6017 105.584 28.4478 105.537C29.9274 105.456 31.4513 105.314 32.9008 105.005C34.0348 104.763 35.3272 104.55 35.9387 103.449C36.4855 102.464 36.6787 101.231 36.9731 100.157C37.1296 99.5868 37.5329 98.7595 37.5329 98.1694C37.5329 97.4021 37.4298 97.5531 36.6325 97.1332C35.6231 96.602 34.6414 95.8615 33.5528 95.56C33.2234 95.4954 32.8941 95.4323 32.5642 95.3701C32.1378 95.1219 31.897 95.2441 31.8411 95.7362C31.4247 96.1766 31.1807 96.9886 30.8314 97.5038C30.035 98.6785 29.0891 99.479 27.8537 100.156C25.6303 101.375 23.5587 102.316 21.1774 103.112C19.865 103.551 18.6548 104.168 17.3722 104.652C16.3444 105.04 14.9261 105.157 14.1368 106.021C13.2462 106.995 14.6151 107.349 15.376 108.007C15.9995 108.547 16.0117 108.671 16.8645 108.409C17.5 108.214 18.0631 107.841 18.6736 107.588C20.7636 106.721 23.2933 106.144 25.5626 105.893ZM73.3301 121.342C72.5512 121.172 71.7721 121.003 70.9932 120.835C71.7593 122.27 73.3704 124.37 72.2141 126.031C71.7817 126.651 71.0629 126.828 70.4208 127.143C69.6433 127.524 68.9258 128.012 68.191 128.466C65.1611 130.338 62.0817 132.237 58.889 133.844C59.8886 134.167 61.4254 134.391 62.4547 134.109C63.6533 133.781 64.7632 133.026 65.9938 132.696C68.2016 132.105 70.5256 131.602 72.7685 131.298C74.6019 131.05 79.1912 131.611 78.9683 128.844C78.7566 126.216 77.193 123.71 76.7277 121.113C75.5858 121.368 74.4967 121.323 73.3301 121.342ZM119.761 79.2944C120.649 74.9213 121.18 70.4742 122.227 66.1324C122.749 63.9665 123.117 61.7709 123.628 59.6043C123.865 58.5964 124.045 57.5787 124.276 56.5726C124.51 55.5541 125.014 54.6142 125.129 53.5613C124.281 53.7718 124.085 55.7221 123.828 56.4557C123.356 57.8015 122.841 59.0949 122.235 60.3834C121.271 62.4315 120.249 64.4077 119.162 66.3935C118.015 68.488 116.805 70.5021 115.373 72.4147C114.902 73.0433 114.264 73.5356 113.96 74.2251C113.483 75.3095 113.283 76.6021 112.827 77.7307C113.148 77.8942 113.977 77.9347 114.37 78.0128C115.102 78.1576 115.615 78.2865 116.318 78.6356C117.556 79.2508 118.596 79.9799 119.423 81.0867C119.631 80.5186 119.685 79.8956 119.761 79.2944ZM85.25 112.66C85.2352 108.448 85.1758 104.201 85.2446 100.02C85.2636 98.8595 85.3578 97.6071 85.5256 96.4551C85.6308 95.7312 86.2507 94.1921 85.8432 93.845C85.4951 93.5482 83.6571 93.7437 83.206 93.7333C82.3314 93.7128 81.4593 93.6737 80.5828 93.6076C80.5828 95.1685 81.1904 96.9409 81.4729 98.4848C81.736 99.9251 81.9523 101.373 82.1696 102.82C82.6398 105.953 82.7735 109.13 83.2842 112.271C83.7465 115.12 84.3566 117.956 84.6932 120.804C84.8778 122.368 85.2515 123.843 85.5417 125.405C85.6935 126.22 86.2462 129.576 86.9426 129.906C87.0897 128.702 86.4884 127.248 86.3806 126.031C86.2696 124.774 86.1835 123.509 85.9803 122.246C85.7419 120.763 85.6215 119.243 85.53 117.742C85.4744 116.823 85.4573 115.907 85.3781 114.989C85.3209 114.322 85.0697 113.313 85.25 112.66ZM107.121 56.3421C107.15 55.8835 105.967 55.9019 105.747 55.3748C105.3 54.3044 106.319 54.4971 106.945 54.3863C106.722 53.791 102.54 54.0077 103.515 52.4009C104.19 51.2859 106.753 52.9924 107.438 51.9329C107.888 51.2371 106.663 51.1412 106.177 51.0716C105.446 50.9664 103.724 51.3062 103.78 50.3542C103.852 49.158 107.2 48.3324 108.139 47.9811C108.035 47.162 104.005 48.3263 103.422 48.6583C102.102 49.4098 101.091 50.7582 100.897 52.2567C100.672 54.0003 101.553 55.3735 103.288 55.8014C104.012 55.9798 104.547 55.9995 105.216 56.2678C105.657 56.4442 107.082 56.884 107.384 56.4391L107.121 56.3421ZM130.779 45.497C130.845 44.7524 131.47 43.3507 130.75 42.8616C129.743 42.1769 129.326 43.3051 129.098 43.9829C128.819 44.8103 127.646 46.8358 128.672 47.3514C128.91 47.4713 130.041 47.3316 130.24 47.2527C130.796 47.3979 130.975 47.1892 130.779 46.6257L130.779 45.497ZM106.202 105.627C106.139 103.592 107.046 101.145 107.561 99.1522C108.144 96.8938 108.452 94.5905 109.069 92.3569C108.382 92.4401 107.688 92.5079 107.009 92.6462C106.082 92.8352 106.066 92.8054 106.132 93.7176C106.232 95.0875 106.102 96.4305 106.031 97.8C105.89 100.542 106.234 103.329 106.005 106.053C106.209 106.105 106.274 105.963 106.202 105.627ZM131.858 52.2923C134.085 52.6344 136.219 53.3425 138.244 54.2943C139.361 54.8188 140.591 55.3826 141.839 55.5921C143.226 55.8249 144.696 55.7157 146.112 55.8055C146.611 55.8371 147.923 56.0805 148.41 55.7859C148.892 55.494 148.854 54.9994 148.877 54.4098C148.935 52.8932 148.251 51.4082 147.636 50.0475C147.109 48.88 146.71 47.9887 145.891 46.9846C144.839 45.6948 143.924 44.3029 142.939 42.9567C142.197 41.9419 141.446 40.9419 140.689 39.9284C140.148 39.2026 140.174 38.9529 139.358 39.0341C138.554 39.1142 137.745 39.5908 136.988 39.8433C135.865 40.2183 134.505 40.4242 133.481 41.0236C132.818 41.4113 132.789 41.4826 132.796 42.159C132.804 42.7891 133.006 43.5578 133.382 44.0508C134.162 45.074 135.455 45.6156 136.566 46.1262C137.208 46.4213 137.762 46.8401 138.334 47.2475C138.95 47.6865 140.193 47.9451 140.664 48.4456C142.036 49.9032 139.538 49.615 138.84 49.5712C137.334 49.4763 135.836 49.4906 134.319 49.4893C132.663 49.4884 131.02 49.4111 129.388 49.4651C128.431 49.4967 127.334 49.01 126.715 48.1987C126.415 47.8059 126.298 47.4342 125.906 47.0264C125.392 46.4926 124.945 45.9301 124.319 45.5169C123.296 44.841 121.436 44.4584 120.219 44.7107C120.655 44.7718 122.706 45.4726 121.803 46.3535C121.693 46.4608 120.373 46.531 120.087 46.6632C119.569 46.9017 118.917 47.2484 118.613 47.7521C119.497 47.6035 122.775 47.4314 121.103 49.1335C120.692 49.5513 119.514 49.9682 120.517 50.4125C120.747 50.5145 121.208 50.37 121.505 50.462C121.945 50.599 122.306 50.9653 122.719 51.1606C123.89 51.7151 125.505 52.057 126.727 51.9356C128.418 51.7672 130.179 52.0702 131.858 52.2923ZM87.0302 103.576C87.0877 106.021 86.9999 108.48 87.0519 110.936C87.1075 113.559 87.4428 116.13 87.6026 118.727C87.7462 121.054 88.0592 123.337 88.3136 125.653C88.46 126.987 88.6286 128.263 88.8535 129.587C89.0643 130.826 89.1003 131.917 87.6243 132.251C84.8025 132.888 84.364 128.814 83.8187 127.097C83.0045 124.536 82.4824 121.846 82.079 119.191C81.3281 114.245 80.3295 109.368 79.9399 104.38C79.7 101.309 79.3521 98.2689 79.1546 95.2003C79.116 94.5989 79.2687 93.6726 78.7427 93.4046C78.426 93.2439 77.5543 93.2426 77.1548 93.1259C76.0419 92.801 75.0151 92.3226 73.9291 91.8262C74.6998 95.8704 74.9544 99.8947 75.5326 103.975C75.8393 106.139 76.4263 108.382 76.9351 110.513C77.4621 112.721 77.5793 115.098 78.1876 117.258C78.4553 118.21 78.6822 118.598 78.2933 119.575C77.8165 120.774 78.1328 121.061 78.7308 122.239C79.8309 124.406 80.6707 126.964 80.4843 129.407C80.3321 131.402 78.8299 132.447 76.9689 132.985C74.641 133.658 72.2035 133.579 69.8615 134.343C67.8212 135.009 65.7479 135.501 63.7667 136.38C62.9677 136.735 62.2086 137.155 61.3215 137.221C60.1047 137.309 59.2842 136.6 58.1351 136.453C57.4169 136.361 56.365 136.705 55.9512 135.949C55.6234 135.35 55.9947 134.043 56.4064 133.561C57.5631 132.206 59.8796 131.025 61.4395 130.225C63.2375 129.304 64.9772 128.15 66.643 126.961C67.6528 126.24 68.6825 125.548 69.6916 124.826C70.3588 124.347 70.6124 124.344 70.5443 123.585C70.49 122.979 70.2178 122.391 70.1703 121.771C70.1339 121.296 70.2998 120.648 70.076 120.338C69.9114 120.11 69.2936 119.948 69.0507 119.775C68.1623 119.143 67.9604 118.361 67.557 117.4C66.6406 115.216 65.5878 113.094 64.7029 110.893C62.8029 106.167 61.6436 101.198 60.0685 96.3758C58.4595 91.4492 57.0206 86.2773 56.1344 81.166C54.9486 81.528 53.8293 83.1304 52.8849 83.9234C51.6091 84.995 50.3017 86.0312 49.0506 87.1322C46.9997 88.9368 44.9231 90.6919 43.2283 92.8533C42.4119 93.8941 41.7432 95.0145 41.004 96.108C40.577 96.7398 40.1788 97.455 39.7163 98.056C39.642 98.1525 39.6402 98.3506 39.56 98.4327C39.3838 98.6131 39.0476 98.3728 38.9347 98.4917C38.2378 99.2229 38.2469 101.299 38.0298 102.264C37.7305 103.594 37.3945 105.123 36.3599 106.039C34.7618 107.455 31.8142 107.674 29.7916 107.748C27.1958 107.842 24.6779 108.568 22.2149 109.347C21.0664 109.711 19.9475 110.136 18.7946 110.489C18.1314 110.693 17.3749 111.098 16.6667 111.02C15.8126 110.926 15.1382 110.205 14.5125 109.669C13.5119 108.811 12.5852 107.966 12.6175 106.559C12.6535 105.07 13.4575 103.946 14.7238 103.206C17.1721 101.776 19.9104 100.86 22.5495 99.8713C23.5607 99.4924 24.4265 99.073 25.3935 98.563C26.7597 97.8421 28.3326 97.2537 29.5448 96.3019C29.9021 96.0209 31.2158 95.1605 31.3279 94.7168C31.3425 94.659 31.0143 93.9813 31.0128 93.8738C31.0095 93.5973 31.1726 93.2979 31.273 93.0613C31.9044 91.5717 32.9635 90.1372 33.7732 88.7325C35.2561 86.1595 36.7447 83.573 38.464 81.1532C41.8924 76.3286 45.7436 71.6046 49.9002 67.3931C51.9266 65.3399 53.6777 63.0112 55.7325 60.9865C56.5467 60.1845 57.4061 59.5313 58.4092 59.0109C59.5275 58.4305 60.7827 58.3167 62.0645 58.1395C65.1705 57.7105 67.7645 58.6325 70.6807 59.4349C73.4374 60.1932 76.1972 60.8332 78.9695 61.6231C82.0139 62.4906 85.0272 63.3227 88.062 64.2682C89.6837 64.7733 91.3517 65.0834 92.981 65.5682C93.7655 65.8013 96.7315 67.263 97.3855 66.7828C95.325 65.8127 93.2143 64.9283 91.0098 64.3427C90.3605 64.1702 89.9459 64.3611 89.97 63.613C89.9831 63.205 90.4401 62.654 90.6045 62.3183C90.9985 61.5141 91.4445 60.7284 91.8299 59.922C90.4324 60.3202 86.676 61.6983 85.6228 60.2737C84.5206 58.7822 85.441 55.8584 86.1316 54.3982C87.9347 50.5866 91.0014 47.4057 93.9895 44.5323C94.6357 43.9112 96.029 43.0999 96.3736 42.3086C96.4782 42.068 96.2504 41.7146 96.4868 41.4022C96.6272 41.2161 97.1916 41.0892 97.4173 40.8888C98.2389 40.1589 98.8942 38.6231 99.462 37.6663C100.057 36.6642 100.593 35.579 101.34 34.6797C102.562 33.2096 103.823 31.6512 105.802 31.3072C106.773 31.1387 107.804 31.2287 108.734 30.8922C109.859 30.4854 110.928 29.8445 112.064 29.4231C111.782 28.8416 111.554 27.9171 111.007 27.8536C110.48 27.7922 109.708 28.2465 109.106 28.2432C108.226 28.2383 107.475 28.0972 106.625 27.9289C105.685 27.7423 105.376 27.7762 105.033 26.753C104.674 25.6813 104.764 24.4364 104.768 23.3233C104.769 22.779 104.876 22.1037 104.83 21.5698C104.761 20.7655 104.605 20.7344 103.977 20.2227C103.191 19.5835 102.223 18.7376 103.185 17.6269C103.705 17.0266 104.773 17.4934 105.233 16.8486C105.702 16.1917 105.68 14.5416 105.823 13.7702C104.377 14.4833 104.907 11.8177 104.907 11.1765C104.907 10.243 104.283 8.56466 105.181 7.7884C105.597 7.42792 105.907 7.72602 106.384 7.51897C106.928 7.2825 107.27 6.66246 107.849 6.42208C108.999 5.94411 110.174 6.51965 111.355 6.4245C112.709 6.31576 114.04 6.10554 115.402 6.32377C116.047 6.42673 116.319 6.6727 116.865 6.94846C117.39 7.21361 117.923 7.28622 118.493 7.45678C119.001 7.60872 119.446 7.68562 119.788 8.12933C120.06 8.4805 119.949 9.07112 120.223 9.37369C120.493 9.67198 121.027 9.62878 121.349 9.98274C121.658 10.3227 121.843 10.8845 122.003 11.3074C122.22 11.8771 122.245 12.0912 122.628 12.5471C122.961 12.945 123.44 13.265 123.718 13.719C124.373 14.7889 124.39 16.3362 124.181 17.5398C124.109 17.9496 123.518 19.0089 123.61 19.3578C123.698 19.6898 124.253 19.6025 124.505 19.8123C124.722 19.9939 124.913 20.8021 125.085 20.8513C125.455 20.958 125.911 20.2246 126.191 20.1145C126.679 19.9233 126.883 19.7272 127.153 20.4478C127.353 20.9828 127.074 21.7087 126.927 22.2191C126.741 22.8689 126.534 23.6515 126.04 24.1429C125.458 24.7205 124.992 24.4047 124.351 24.7158C123.389 25.1821 123.673 26.64 122.49 27.0567C121.362 27.4537 120.12 26.2047 119.267 25.6304C119.444 27.0243 120.109 28.3676 119.789 29.7961C122.383 28.7764 124.948 27.3293 127.774 27.0105C129.215 26.8478 130.671 26.6553 132.032 27.2556C133.624 27.9583 134.6 29.5084 135.677 30.7963C137.703 33.2169 139.782 35.5695 141.726 38.0681C143.509 40.36 145.012 43.0156 146.975 45.1615C148.966 47.3378 150.468 50.8685 150.25 53.8821C150.23 54.1541 150.02 54.7721 150.053 55.0654C150.079 55.2901 150.282 55.575 150.279 55.7562C150.268 56.3659 150.067 56.7169 149.488 57.0553C148.484 57.6421 146.988 57.9391 145.853 58.0849C144.345 58.2784 142.499 58.2991 140.99 58.0924C139.435 57.879 138.067 57.0052 136.636 56.4771C135.381 56.0135 134.121 55.7243 132.803 55.4288C132.075 55.2655 131.27 54.814 130.821 55.251C130.408 55.6526 130.322 57.7135 130.226 58.2614C129.183 64.201 127.943 69.9392 126.845 75.8484C125.6 82.5463 124.749 89.2416 123.884 95.9963C123.097 102.137 122.84 108.346 122.664 114.481C122.58 117.407 122.568 120.302 122.586 123.23C122.596 124.87 123.413 130.345 120.99 130.554C119.566 130.678 118.427 128.629 118.046 127.512C117.473 125.834 117.174 124.027 117.083 122.264C116.898 118.694 116.656 115.123 116.512 111.552C116.357 107.684 116.554 103.744 116.871 99.8882C117.19 96.0067 117.994 92.1819 118.24 88.2946C117.501 89.3535 117.264 89.5526 116.032 90.0136C114.744 90.4966 113.504 91.0677 112.203 91.5179C111.761 91.6709 111.071 91.7668 110.708 92.0176C110.039 92.4801 110.478 91.9553 110.265 92.8555C110.036 93.8174 109.993 94.972 109.933 95.9604C109.648 100.599 108.367 105.204 107.777 109.817C107.634 110.931 107.838 115.66 105.927 114.17C104.456 113.022 104.485 109.417 104.276 107.729C103.997 105.478 104.152 103.163 104.197 100.899C104.247 98.3199 104.29 95.6148 104.903 93.0967C103.806 92.9082 102.28 93.4216 101.176 93.508C100.219 93.5824 99.2662 93.6301 98.3151 93.6826C96.0476 93.8074 93.7117 93.9072 91.4057 93.8625C90.986 93.8543 88.2435 93.469 87.893 93.7796C87.779 93.8805 87.7443 95.2681 87.723 95.4377C87.6423 96.0753 87.5328 96.7122 87.4512 97.3462C87.1907 99.3732 86.9556 101.55 87.0302 103.576Z" fill="black"/>
<path fill-rule="evenodd" clip-rule="evenodd" d="M127.758 122.838C129.488 123.517 131.325 123.763 133.07 124.382C134.631 124.934 136.08 125.677 137.616 126.239C137.706 125.524 137.754 124.313 137.49 123.639C137.118 122.684 136.137 122.661 135.172 122.321C132.821 121.494 130.349 121.319 128.016 120.353C128.416 121.124 128.238 122.146 127.758 122.838ZM157.632 120.342C153.895 120.452 150.323 121.325 146.639 121.865C144.847 122.127 143.052 122.362 141.258 122.607C140.568 122.701 139.309 122.59 138.807 123.19C138.391 123.687 138.847 125.383 138.663 126.111C139.418 126.167 140.759 125.459 141.579 125.341C142.856 125.159 144.116 124.904 145.406 124.823C147.45 124.694 149.457 124.584 151.497 124.355C153.571 124.123 155.578 123.692 157.669 123.535C158.685 123.458 159.094 123.649 159.154 122.572C159.177 122.152 159.235 121.447 159.117 121.032C159.305 120.521 159.139 120.274 158.617 120.288C158.288 120.251 157.955 120.269 157.632 120.342ZM150.403 116.906C151.414 116.811 152.429 116.674 153.443 116.617C153.648 116.605 154.69 116.668 154.86 116.477C155.101 116.206 154.833 115.214 154.789 114.907C154.638 113.863 154.472 113.256 153.338 113.254C152.38 113.251 151.389 113.455 150.435 113.548C146.106 113.974 141.799 114.154 137.517 114.963C137.778 116.076 138.074 117.225 137.762 118.364C139.816 118.471 142.071 118.074 144.078 117.667C146.13 117.251 148.306 117.045 150.403 116.906ZM143.551 106.42C142.004 106.426 140.369 107.11 138.843 106.958C138.82 107.243 139.309 107.006 139.444 107.273C139.732 107.274 139.832 107.368 139.744 107.557C139.75 107.685 139.684 107.76 139.548 107.782L139.346 107.8C139.051 107.809 139.002 108.009 139.201 108.399C139.116 108.883 139.244 109.498 139.262 109.983C142.005 109.609 144.67 109.219 147.432 109.052C148.736 108.973 150.039 108.973 151.342 108.865C152.775 108.747 154.339 109.001 155.74 108.732C156.489 108.588 156.411 108.598 156.356 107.62C156.323 107.027 156.335 106.322 155.853 105.889C155.049 105.165 153.217 105.583 152.255 105.609C149.357 105.686 146.41 105.956 143.551 106.42ZM145.134 120.377C149.278 120 153.391 119.172 157.558 119.172C157.263 118.877 156.622 118.801 156.255 118.64C155.837 118.456 155.442 118.065 155.033 117.904C154.213 117.582 153.379 118.03 152.537 118.223C150.505 118.69 148.421 118.706 146.386 119.164C144.283 119.637 142.152 120.073 140.009 120.314C138.989 120.428 137.894 120.661 136.886 120.39L136.641 120.214C136.552 119.838 136.308 119.737 135.907 119.913C135.397 119.815 134.749 119.941 134.236 119.954C134.215 120.159 136.11 120.804 136.471 120.964C137.342 121.349 137.932 121.63 138.862 121.465C140.955 121.094 143.014 120.651 145.134 120.377ZM130.558 108.22C130.72 108.853 131.4 108.565 131.985 108.635C132.771 108.728 133.553 109 134.314 109.205C135.696 109.578 137.078 109.946 138.454 110.34C138.4 109.782 138.523 108.512 138.23 108.017C137.921 107.498 136.46 107.271 135.78 107.113C134.064 106.715 132.232 106.941 130.49 107.025C130.521 107.423 130.544 107.821 130.558 108.22ZM147.034 112.183C148.661 112.045 150.29 111.937 151.922 111.879C153.788 111.814 152.432 111.515 152.393 110.373C149.94 110.765 147.466 110.843 145.021 111.178C142.996 111.457 140.583 112.183 138.517 111.793C137.542 111.609 136.547 111.538 135.511 111.434C134.533 111.336 133.61 110.879 132.644 110.765C131.56 110.638 130.452 111.249 129.373 111.411C128.916 111.479 128.809 111.791 128.594 111.238C128.37 110.665 129.011 110.197 129.263 109.855C129.558 109.454 129.436 110.104 129.6 109.479C129.645 109.304 129.521 108.864 129.498 108.676C129.44 108.199 129.291 107.681 129.268 107.205C129.246 106.768 129.243 106.101 129.716 105.846C130.004 105.69 130.209 105.917 130.46 105.873C132.424 105.53 134.734 105.502 136.726 105.833C138.886 106.192 140.744 105.242 142.872 104.857C145.369 104.406 147.892 104.338 150.41 104.148C152.563 103.985 156.497 103.139 157.317 105.899C157.55 106.681 157.888 108.834 157.263 109.499C156.443 110.373 154.544 110.094 153.484 110.321C153.643 110.774 154.115 111.082 153.952 111.621C155.437 111.691 155.7 113.1 155.933 114.415C156.174 115.775 155.704 116.316 157 117.024C158.805 118.012 160.718 119.009 160.683 121.36C160.665 122.543 160.533 124.326 159.324 124.939C158.14 125.539 156.213 125.438 154.909 125.656C152.383 126.078 149.849 126.573 147.308 126.826C144.602 127.096 141.851 127.318 139.141 127.438C137.665 127.504 136.389 127.728 134.963 127.229C133.561 126.739 132.189 126.381 130.742 126.017C129.314 125.658 124.942 125.175 126.216 122.723C126.42 122.331 127.117 122.02 127.229 121.649C127.411 121.05 126.798 120.584 126.823 120.043C126.87 119.054 127.982 118.93 128.75 118.93C127.434 118.104 129.196 117.126 129.186 116.425C129.167 115.19 127.636 114.388 127.549 113.352C127.339 110.832 135.306 113.456 136.532 114.001C135.588 115.406 131.209 114.19 129.905 113.977C130.083 114.446 130.253 114.868 130.305 115.348C130.346 115.739 130.197 116.186 130.334 116.58C130.549 117.203 130.542 117.084 131.304 117.254C131.867 117.379 132.425 117.524 132.987 117.657C133.85 117.861 135.207 118.41 136.063 118.38C136.813 118.354 136.665 118.587 136.802 117.751C136.876 117.302 136.75 116.824 136.674 116.384C136.517 115.462 136.287 114.588 137.089 113.927C137.855 113.296 139.468 112.995 140.407 112.772C142.491 112.279 144.896 112.157 147.034 112.183Z" fill="black"/>
<path fill-rule="evenodd" clip-rule="evenodd" d="M156.949 96.438C154.686 96.0574 152.387 95.9638 150.097 96.079L150.47 97.7844C152.615 97.2301 154.791 96.9052 156.949 96.438ZM138.547 100.849C137.64 100.782 138.271 101.189 138.495 101.785C138.771 102.518 138.712 103.444 138.775 104.215C141.43 103.199 144.52 102.604 147.343 102.262C148.682 102.1 150.041 102.053 151.387 101.984C151.785 101.963 153.222 102.131 153.513 101.862C153.729 101.662 153.578 100.56 153.37 100.317C152.24 98.9947 147.872 100.136 146.291 100.255C143.7 100.449 141.157 100.913 138.547 100.849ZM142.319 97.3065C144.67 97.5331 146.94 97.5115 149.292 97.8651C149.114 96.3652 149.327 95.9824 147.631 95.9027C146.12 95.832 144.614 95.7746 143.11 95.7754C139.728 95.7772 136.354 95.7124 132.969 95.7124V97.2366C136.1 96.9149 139.181 97.496 142.319 97.3065ZM131.013 102.912C132.496 102.905 133.899 103.467 135.383 103.613C136.271 103.7 135.992 103.81 136.608 104.258C137.568 104.955 137.844 104.584 137.724 103.636C137.316 100.432 133.273 101.151 130.944 100.973C131.097 101.737 130.745 102.385 130.226 102.912H131.013ZM147.052 98.7975C144.917 98.8322 142.78 98.9539 140.661 98.9094C139.712 98.8895 138.483 98.7009 137.553 98.8633C136.872 98.9821 136.303 99.3302 135.556 99.4597C136.653 100.053 137.209 99.652 138.363 99.517C139.516 99.3824 140.685 99.3848 141.843 99.3146C143.743 99.1992 145.769 98.7422 147.642 98.8666C147.676 98.6018 147.479 98.5787 147.052 98.7975ZM130.123 105.738C129.144 105.735 130.491 104.618 130.668 104.507C129.584 104.507 129.321 103.854 129.635 102.806C129.931 101.819 130.15 102.121 129.406 101.299C128.845 100.679 128.76 100.223 129.421 99.531C130.094 98.8268 131.455 99.026 132.051 98.4447C133.066 97.4552 131.757 95.4847 133.162 94.7267C134.112 94.2146 135.644 94.278 136.693 94.1698C137.707 94.0651 138.756 94.045 139.776 94.0311C142.001 94.0005 144.312 94.375 146.527 94.5811C147.335 94.6559 148.243 94.9833 149.038 94.984C149.85 94.9849 150.699 94.8034 151.537 94.8244C152.511 94.849 153.449 94.777 154.454 94.9373C155.223 95.0604 157.02 95.125 157.608 95.699C159.568 97.612 154.92 98.4905 154.121 98.7054C154.934 99.6 154.901 100.783 154.778 101.909C155.165 101.909 155.833 101.74 156.034 102.176C156.283 102.717 155.361 102.858 155.143 102.921C153.889 103.285 152.422 103.185 151.13 103.317C148.546 103.581 145.994 103.733 143.437 104.224C142.191 104.463 140.953 104.76 139.708 104.993C139.493 105.033 139.277 105.065 139.06 105.09C138.726 105.061 138.619 105.271 138.736 105.72C138.391 105.889 137.102 105.467 136.704 105.403C134.423 105.031 132.383 105.186 130.123 105.738ZM176.179 127.963C174.708 129.125 173.341 130.221 171.748 131.23C172.874 131.195 176.619 129.393 176.179 127.963ZM175.605 126.07C174.802 125.377 174.004 125.448 173.011 125.238C172.095 125.045 171.206 124.712 170.293 124.491C169.576 124.317 168.867 124.082 168.153 123.918C167.144 123.686 167.045 123.941 166.117 124.471C162.828 126.352 159.147 127.646 155.683 129.173C156.7 130.072 158.988 130.11 160.26 130.397C161.188 130.606 162.071 130.892 162.96 131.223C163.788 131.531 165.122 132.241 165.995 132.264C166.731 132.284 167.331 131.556 167.965 131.165C168.8 130.649 169.63 130.142 170.472 129.639C172.251 128.575 173.916 127.271 175.605 126.07ZM160.741 133.689C160.361 133.322 159.218 133.338 158.742 133.226C157.804 133.007 156.88 132.778 155.93 132.613C154.388 132.345 151.952 132.225 151.784 130.218C151.645 128.549 153.654 128.153 154.829 127.588C156.596 126.738 158.399 125.953 160.21 125.203C161.909 124.5 163.632 123.906 165.362 123.298C165.699 123.18 165.973 123.196 166.249 122.925C166.466 122.711 166.399 122.296 166.637 122.073C167.182 121.561 167.889 121.831 168.545 121.962C170.033 122.26 171.578 122.651 172.996 123.203C174.47 123.777 175.789 123.897 176.143 125.574C176.897 125.219 177.463 125.168 177.373 126.21C177.347 126.517 177.125 126.85 177.072 127.166C176.994 127.632 177.131 128.123 177.053 128.59C176.771 130.288 174.489 131.546 173.075 132.213C171.332 133.035 169.082 134.25 167.135 134.411C165.061 134.582 162.8 133.764 160.741 133.689" fill="black"/>
<path fill-rule="evenodd" clip-rule="evenodd" d="M134.336 105.514L132.48 105.526C133.098 105.41 133.716 105.408 134.336 105.514ZM98.1543 39.8467L97.5977 40.7777C97.6607 40.3777 97.8023 40.0349 98.1543 39.8467ZM135.449 105.524L134.336 105.513C134.701 105.411 135.087 105.415 135.449 105.524ZM150.216 52.6944C150.205 52.322 150.195 51.9492 150.184 51.5772C150.195 51.9499 150.206 52.322 150.216 52.6944ZM87.1258 108.926L87.1028 107.995C87.1107 108.306 87.118 108.616 87.1258 108.926ZM97.2266 93.7506C97.4748 93.7506 97.7225 93.751 97.9688 93.7516C97.7201 93.7516 97.4733 93.751 97.2266 93.7506ZM115.474 6.35845L114.687 6.25809C114.947 6.31841 115.232 6.09479 115.474 6.35845ZM148.252 103.625C148.438 103.621 148.624 103.617 148.809 103.614C148.622 103.618 148.437 103.622 148.252 103.625ZM85.2569 58.4665C85.2584 58.7153 85.2595 58.9638 85.2607 59.2113L85.2569 58.4665ZM127.609 112.836C127.602 113.085 127.595 113.333 127.588 113.581C127.487 113.326 127.498 113.078 127.609 112.836ZM153.076 111.764C152.915 111.928 152.708 111.831 152.52 111.841L153.076 111.764ZM130.996 105.807C130.751 105.923 130.503 105.939 130.254 105.815L130.996 105.807ZM87.1221 103.526C87.117 103.34 87.1119 103.153 87.1065 102.968C87.1115 103.155 87.1169 103.341 87.1221 103.526ZM151.963 94.8235C151.715 94.9524 151.468 94.9361 151.221 94.8222L151.963 94.8235ZM140.273 127.272C140.398 127.268 140.522 127.265 140.645 127.261C140.52 127.265 140.397 127.268 140.273 127.272ZM120.605 130.428C120.73 130.431 120.854 130.433 120.977 130.436C120.852 130.433 120.729 130.431 120.605 130.428ZM74.2188 121.303C73.9089 121.306 73.599 121.31 73.291 121.314L74.2188 121.303ZM99.6387 84.262C99.3286 84.2571 99.0188 84.2521 98.7109 84.2476C99.0217 84.2527 99.3303 84.2575 99.6387 84.262ZM75.7031 121.31L74.9609 121.306C75.2099 121.308 75.4564 121.309 75.7031 121.31ZM85.253 100.547C85.2568 100.299 85.2608 100.05 85.2647 99.8024L85.253 100.547ZM126.729 51.8853L127.471 51.8276C127.223 51.8466 126.976 51.8661 126.729 51.8853ZM106.076 105.016C106.481 106.025 106.254 105.311 106.264 105.543C105.919 105.59 105.856 105.414 106.076 105.016ZM89.0625 83.5204C88.8766 83.5137 88.6901 83.507 88.5059 83.4999C88.6933 83.5066 88.8775 83.5133 89.0625 83.5204ZM119.564 80.624L119.606 80.0655C119.592 80.252 119.578 80.4379 119.564 80.624ZM120.863 110.974L120.905 110.416C120.891 110.602 120.877 110.788 120.863 110.974ZM119.741 79.8793C119.761 79.6929 119.781 79.5067 119.8 79.3207L119.741 79.8793ZM121.269 105.016C121.203 104.823 121.171 104.634 121.298 104.457L121.269 105.016ZM118.109 101.478L118.093 102.037C118.098 101.85 118.103 101.664 118.109 101.478ZM131.182 52.2065C131.431 52.2214 131.704 52.1015 131.924 52.2773L131.182 52.2065ZM92.7734 91.468L93.5156 91.4714C93.2672 91.5913 93.0198 91.603 92.7734 91.468ZM97.4121 91.5466C97.6596 91.5269 97.907 91.5068 98.1543 91.4866C97.9068 91.5068 97.6596 91.5269 97.4121 91.5466ZM118.465 124.381C118.47 124.567 118.474 124.753 118.478 124.939C118.474 124.752 118.47 124.567 118.465 124.381ZM122.343 95.1475C122.36 94.9613 122.377 94.7747 122.394 94.5889L122.343 95.1475ZM130.882 45.4326C130.896 45.2461 130.911 45.0599 130.925 44.874L130.882 45.4326ZM113.271 29.4196C113.275 29.6058 113.278 29.7926 113.282 29.9782L113.271 29.4196ZM61.416 134.197C61.6637 134.069 61.9109 134.105 62.1582 134.198L61.416 134.197ZM154.004 116.489L154.932 116.419C154.643 116.601 154.313 116.466 154.004 116.489ZM146.582 120.221L147.324 120.162C147.077 120.181 146.829 120.201 146.582 120.221ZM148.809 113.673C148.623 113.674 148.436 113.675 148.252 113.676C148.439 113.674 148.624 113.673 148.809 113.673ZM153.447 123.93L154.189 123.867C153.959 124.03 153.698 123.936 153.447 123.93ZM143.613 106.412C143.489 106.412 143.365 106.413 143.242 106.413L143.613 106.412ZM139.16 106.93C139.098 107.083 138.77 107.064 138.79 106.907L139.16 106.93ZM155.859 108.61C156.045 108.607 156.23 108.604 156.416 108.6C156.233 108.732 156.047 108.713 155.859 108.61ZM148.809 105.851C148.684 105.853 148.56 105.855 148.438 105.856L148.809 105.851ZM146.582 124.699C146.83 124.608 147.078 124.577 147.324 124.701L146.582 124.699ZM146.189 99.0331L145.84 98.912C146.273 98.9065 146.706 98.9012 147.139 98.896C147.14 98.896 146.239 99.037 146.189 99.0331ZM142.871 95.7996L141.943 95.7988C142.254 95.7992 142.563 95.7996 142.871 95.7996ZM131.182 102.917C131.49 102.793 131.8 102.817 132.109 102.914L131.182 102.917ZM146.025 97.4446C146.335 97.4649 146.644 97.485 146.953 97.5055C146.644 97.485 146.335 97.4649 146.025 97.4446ZM142.871 98.9763L142.5 98.953C142.625 98.9604 142.748 98.9685 142.871 98.9763ZM140.459 98.9696C140.335 98.966 140.21 98.9625 140.088 98.9595L140.459 98.9696ZM147.139 98.7964C147.139 98.8448 147.698 98.6 147.695 98.8275L147.139 98.7964ZM79.2285 86.9689C79.4295 86.1461 79.3747 85.5022 80.0902 86.0281C80.483 86.3167 81.1306 87.7808 81.0814 88.2766C81.0209 88.8883 80.743 89.132 80.1692 88.9374C79.5098 88.7132 79.2482 87.5845 79.2285 86.9689ZM115.379 81.9734C117.04 81.9734 116.315 83.7481 114.93 83.7877C114.294 83.8062 113.378 83.6801 113.584 82.8251C113.695 82.3689 115.309 81.7535 115.379 81.9734ZM97.5557 85.4652C98.7553 86.0476 97.0677 88.6051 95.9776 87.972C94.582 87.1616 97.0625 85.8301 97.5557 85.4652ZM94.6371 87.8858C95.0297 88.3155 96.7991 89.7725 95.8238 90.3585C94.6245 91.0791 93.7116 88.7006 94.6371 87.8858ZM74.5301 86.7686C74.1399 86.0113 74.6767 84.0296 75.8684 84.3918C77.0675 84.7565 75.1899 86.5675 74.5301 86.7686ZM101.001 87.205C101.779 86.8907 101.63 87.8206 101.748 88.1206C101.881 88.4613 102.566 89.2914 102.394 89.6541C102.139 90.1922 101.53 89.8492 101.199 89.4999C100.619 88.8873 100.66 87.9044 101.001 87.205ZM89.1441 88.0669C88.4958 88.0669 86.9478 86.1908 87.8574 85.8759C88.9862 85.4853 89.9299 88.2047 89.1441 88.0669ZM111.552 85.0928C112.146 85.2399 112.932 86.927 112.037 87.1227C111.046 87.3396 110.869 85.5594 111.552 85.0928ZM107.952 88.2582C107.486 87.3581 107.371 85.4313 108.508 86.9779C108.755 87.3128 109.009 87.1773 108.882 87.7299C108.772 88.2124 108.33 88.2582 107.952 88.2582ZM83.4191 83.6032C83.8937 84.3201 83.7536 86.5686 82.7617 85.2388C82.3398 84.6735 82.6303 83.63 83.4191 83.6032ZM107.281 16.0316C108.202 15.7929 108.423 17.972 107.886 18.2122C107.134 18.5485 107.228 16.396 107.281 16.0316ZM165.537 126.736C164.682 126.686 163.485 126.452 164.779 125.843C165.601 125.457 166.822 125.43 167.69 125.589C168.288 125.698 169.185 126.195 168.272 126.84C167.738 127.217 166.186 126.754 165.537 126.736M164.579 128.291L163.838 128.207C164.036 127.846 164.612 127.77 164.579 128.291Z" fill="black"/>
</svg>
