<svg width="287" height="275" viewBox="0 0 287 275" fill="none" xmlns="http://www.w3.org/2000/svg">
<path d="M115.335 63.1799L110 102.281L171.658 110.694L176.993 71.5931L115.335 63.1799Z" fill="#EBEBEB"/>
<path d="M113 63.1602C115.166 65.8931 117.393 68.5099 119.58 71.195C121.766 73.8801 124.021 76.4764 126.262 79.0864C128.591 81.8193 130.942 84.5523 133.285 87.2237C133.36 87.3057 133.422 87.3945 133.497 87.4833C135.579 89.861 137.667 92.2364 139.762 94.6095L140.07 94.9511L140.452 94.7051C143.103 92.9788 145.75 91.2434 148.392 89.4989C148.486 89.4445 148.577 89.3852 148.665 89.3213C151.667 87.3535 154.655 85.3653 157.629 83.3566C160.471 81.4435 163.327 79.4963 166.163 77.5491C168.998 75.6019 171.84 73.6137 174.655 71.5708C171.731 73.2515 168.834 75.0348 165.93 76.7702C163.027 78.5056 160.13 80.3162 157.24 82.1336C154.024 84.1332 150.808 86.167 147.592 88.2349C145.183 89.7654 142.773 91.3049 140.364 92.8536C138.471 90.7219 136.565 88.5765 134.652 86.4653C132.11 83.6322 129.557 80.8127 126.993 78.0069C124.688 75.4926 122.376 72.9874 120.058 70.4913C117.673 68.059 115.364 65.5651 113 63.1602Z" fill="white"/>
<path d="M133 89.1172C133.024 89.1407 133.047 89.1658 133.068 89.1923L133.929 90.1489C135.296 91.6657 136.71 93.1278 138.152 94.5626C139.914 96.3253 141.725 98.0402 143.549 99.7415C145.373 101.443 147.232 103.083 149.138 104.695C151.044 106.307 152.964 107.906 154.973 109.396C153.326 107.503 151.557 105.713 149.828 103.93C148.1 102.146 146.248 100.452 144.437 98.7576C142.627 97.0632 140.741 95.403 138.842 93.7837C137.332 92.4924 135.788 91.2216 134.196 90.0054C133.831 89.7184 133.462 89.4383 133.089 89.165L133 89.1172Z" fill="white"/>
<path d="M130 101.035C132.343 100.133 134.632 99.1149 136.887 98.0696C139.142 97.0242 141.376 95.9037 143.603 94.7832C145.831 93.6627 148.024 92.4739 150.19 91.2441C151.959 90.2465 153.708 89.1944 155.423 88.1285C155.799 87.8962 156.161 87.6639 156.523 87.4453L156.605 87.3906C156.572 87.3993 156.536 87.3993 156.503 87.3906L155.205 87.9167C153.353 88.6614 151.536 89.4813 149.739 90.3149C147.477 91.3671 145.25 92.4739 143.029 93.6081C140.809 94.7422 138.616 95.9174 136.443 97.1541C134.27 98.3907 132.098 99.6479 130 101.035Z" fill="white"/>
<path d="M164.993 6.59609L114 19.5371L122.207 51.8744L173.199 38.9334L164.993 6.59609Z" fill="#EBEBEB"/>
<path d="M118 19.5225C120.562 20.971 123.138 22.3238 125.707 23.7313C128.276 25.1387 130.858 26.4642 133.441 27.8307C136.133 29.2381 138.832 30.6114 141.531 31.9847L141.777 32.1214L148.944 35.722L149.292 35.8929L149.518 35.5786C151.048 33.3854 152.565 31.1854 154.089 28.9853C154.145 28.9107 154.197 28.8331 154.246 28.753C155.977 26.2661 157.689 23.7609 159.384 21.2374C161.01 18.8393 162.629 16.407 164.235 13.9815C165.84 11.556 167.439 9.09635 169.017 6.60938C167.254 8.85039 165.553 11.1666 163.825 13.4417C162.096 15.7169 160.408 18.0604 158.714 20.3971C156.828 22.9888 154.949 25.6033 153.077 28.2406C151.679 30.2038 150.278 32.1738 148.875 34.1506C146.689 33.0574 144.516 31.9984 142.351 30.9462C139.454 29.5251 136.557 28.1222 133.66 26.7375C131.063 25.5008 128.46 24.271 125.857 23.0685C123.254 21.866 120.624 20.6567 118 19.5225Z" fill="white"/>
<path d="M132 28.959C132.024 28.9752 132.049 28.989 132.075 29L133.052 29.4782C134.605 30.2298 136.175 30.9358 137.76 31.5963C139.7 32.4298 141.661 33.195 143.629 33.9466C145.596 34.6982 147.578 35.4019 149.58 36.0646C151.582 36.7274 153.597 37.3696 155.647 37.9025C153.754 36.9392 151.828 36.0851 149.894 35.2584C147.96 34.4317 145.979 33.6665 144.018 32.9149C142.057 32.1634 140.062 31.4528 138.06 30.7901C136.468 30.2571 134.856 29.7447 133.223 29.2938C132.847 29.1845 132.471 29.0888 132.089 28.9863L132 28.959Z" fill="white"/>
<path d="M135 50.8279C136.551 49.3862 138.02 47.8626 139.455 46.3185C140.889 44.7744 142.297 43.203 143.684 41.6247C145.071 40.0464 146.417 38.4066 147.722 36.76C148.795 35.3936 149.847 34.0271 150.844 32.6606L151.48 31.7656C151.48 31.7656 151.48 31.7178 151.527 31.6973L151.459 31.7588C151.172 32.032 150.885 32.2985 150.605 32.5786C149.389 33.747 148.221 34.9631 147.066 36.1998C145.624 37.7371 144.231 39.3153 142.85 40.9005C141.47 42.4856 140.117 44.1117 138.812 45.7651C137.507 47.4185 136.202 49.0515 135 50.8279Z" fill="white"/>
<path d="M167.251 146.828L115 152.957L118.887 186.092L171.138 179.963L167.251 146.828Z" fill="#EBEBEB"/>
<path d="M117 152.974C119.35 154.744 121.728 156.425 124.085 158.167C126.442 159.909 128.834 161.549 131.218 163.216C133.603 164.883 136.199 166.68 138.693 168.395L138.918 168.559C141.118 170.067 143.327 171.572 145.546 173.075L145.874 173.287L146.133 173.007C147.955 171.035 149.754 169.055 151.531 167.069C151.6 167.006 151.664 166.938 151.722 166.864C153.758 164.623 155.785 162.364 157.803 160.087C159.73 157.928 161.649 155.728 163.563 153.535C165.476 151.341 167.382 149.114 169.254 146.846C167.204 148.841 165.223 150.945 163.207 152.947C161.192 154.949 159.21 157.046 157.222 159.171C155.013 161.485 152.811 163.829 150.615 166.202C148.969 167.965 147.329 169.741 145.682 171.511C143.674 170.144 141.665 168.812 139.656 167.486C136.978 165.696 134.29 163.924 131.594 162.171C129.189 160.599 126.773 159.046 124.345 157.511C121.865 156.001 119.446 154.443 117 152.974Z" fill="white"/>
<path d="M132 166.988L132.068 167.036C132.369 167.241 132.676 167.446 132.977 167.637C134.419 168.594 135.881 169.496 137.37 170.37C139.181 171.443 141.026 172.461 142.877 173.472C144.729 174.483 146.601 175.426 148.5 176.349C150.4 177.271 152.306 178.173 154.267 178.965C152.524 177.763 150.721 176.663 148.91 175.597C147.1 174.531 145.241 173.5 143.396 172.495C141.552 171.491 139.666 170.527 137.773 169.605C136.263 168.867 134.726 168.15 133.168 167.487C132.813 167.332 132.451 167.182 132.082 167.036L132 166.988Z" fill="white"/>
<path d="M134 185.04C135.729 183.81 137.416 182.492 139.008 181.159C140.6 179.827 142.233 178.426 143.791 177.06C145.349 175.693 146.92 174.238 148.437 172.769C149.673 171.58 150.89 170.371 152.065 169.114L152.816 168.308C152.836 168.289 152.854 168.268 152.871 168.246C152.849 168.267 152.824 168.283 152.796 168.294L151.846 168.977C150.48 169.982 149.168 171.027 147.856 172.1C146.223 173.466 144.638 174.832 143.073 176.199C141.509 177.565 139.944 179.021 138.427 180.49C136.911 181.959 135.421 183.462 134 185.04Z" fill="white"/>
<path d="M152.434 7.98702C147.18 8.08951 139.527 8.29448 134.342 8.29448H134.041V7.98702L134 0.341618V0H134.342C139.76 0 147.282 0.0546585 152.625 0.157144C152.625 2.48015 152.475 5.62303 152.434 7.98702ZM152.434 7.98702C152.365 5.75284 152.297 2.52114 152.249 0.341618L152.434 0.532923C147.207 0.621744 139.65 0.669571 134.342 0.683236L134.683 0.341618L134.649 7.98702L134.342 7.6864C139.459 7.6864 147.248 7.88454 152.434 7.98702Z" fill="#EBEBEB"/>
<path d="M134.191 185.786C139.445 185.683 147.098 185.479 152.283 185.479H152.584V185.786L152.625 193.431V193.773H152.283C146.865 193.773 139.343 193.718 134 193.616C134 191.293 134.15 188.15 134.191 185.786ZM134.191 185.786C134.26 188.02 134.328 191.252 134.376 193.431L134.191 193.24C139.418 193.151 146.975 193.103 152.283 193.09L151.942 193.431L151.976 185.786L152.283 186.087C147.166 186.087 139.377 185.888 134.191 185.786Z" fill="#EBEBEB"/>
<path d="M134.219 185.786C139.473 185.683 147.125 185.479 152.311 185.479H152.618V185.786V193.431V193.773H152.277C146.865 193.773 139.336 193.718 134 193.616C134 191.293 134.143 188.15 134.184 185.786H134.219ZM134.219 185.786C134.287 188.02 134.362 191.252 134.41 193.431L134.219 193.24C139.452 193.151 147.002 193.103 152.311 193.09L151.969 193.431L152.01 185.786L152.311 186.087C147.2 186.087 139.404 185.888 134.219 185.786Z" fill="#EBEBEB"/>
<path d="M134.225 176.13C139.48 176.027 147.132 175.822 152.318 175.822H152.625V176.13V183.775V184.117H152.277C146.865 184.117 139.336 184.062 134 183.96C134 181.637 134.143 178.494 134.184 176.13H134.225ZM134.225 176.13C134.294 178.364 134.369 181.596 134.417 183.775L134.225 183.584C139.459 183.495 147.009 183.447 152.318 183.434L151.983 183.775V176.13L152.283 176.43C147.173 176.43 139.377 176.232 134.191 176.13H134.225Z" fill="#EBEBEB"/>
<path d="M0 273.887C91.9362 273.47 195.064 273.47 287 273.887C195.064 274.31 91.9362 274.304 0 273.887Z" fill="#263238"/>
<path d="M108.325 116.384C111.327 120.057 114.741 123.374 118.5 126.27C114.489 114.111 120.806 90.0309 120.823 93.6684C120.899 111.05 127.326 131.493 131.091 133.257C131.091 133.257 131.091 133.257 131.159 133.257C141.494 136.987 151.788 136.241 160.835 133.511C160.835 133.511 160.835 133.511 160.835 133.452C155.298 119.478 161.072 94.8555 161.293 96.4834C163.777 113.916 174.172 126.075 176.335 126.524C186.018 120.632 191.936 113.933 190.961 112.907C183.906 105.446 180.04 89.3526 177.055 72.5812C174.088 56.0472 174.079 40.9377 168.203 25.4636C162.811 11.3037 147.133 5.3939 136.577 9.70122C108.842 21.0291 104.077 111.237 108.325 116.384Z" fill="#263238"/>
<path d="M138.424 9.08008C136.12 9.68145 133.974 10.7749 132.133 12.2851C130.258 13.7523 128.522 15.387 126.944 17.169C123.877 20.8039 121.205 24.7547 118.973 28.9548C114.369 37.2896 111.342 46.4045 109.129 55.6126C107.055 64.8673 105.772 74.2819 105.297 83.7543C105.144 86.12 105.127 88.4856 105.042 90.8512L105 97.9481L105.237 105.028L105.678 112.1V105.02L105.805 97.9481L106.068 90.8851C106.229 88.5365 106.314 86.1793 106.535 83.8391C107.199 74.4558 108.588 65.1379 110.689 55.9688C112.686 46.7917 115.819 37.8994 120.016 29.4974C122.109 25.2965 124.623 21.3192 127.52 17.6269C128.987 15.7863 130.619 14.0835 132.396 12.5395C133.294 11.7876 134.247 11.1019 135.244 10.4876C136.229 9.863 137.3 9.38863 138.424 9.08008Z" fill="#263238"/>
<path d="M192.484 110.648C190.651 106.994 189.004 103.25 187.55 99.4303C186.04 95.6317 184.675 91.7992 183.497 87.8819C182.318 83.9646 181.258 80.0473 180.444 76.0707C179.63 72.0941 178.952 68.0326 178.206 64.0136C176.62 55.9756 175.043 47.9036 172.991 39.9757C171.94 36.0076 170.821 32.0564 169.439 28.1815C168.742 26.2448 167.938 24.3482 167.031 22.5006C166.197 20.6128 164.982 18.9182 163.461 17.5234C164.843 19.0226 165.925 20.7725 166.649 22.6787C167.438 24.5569 168.125 26.4758 168.709 28.4274C169.93 32.3192 170.914 36.2874 171.813 40.2979C173.61 48.2682 175.204 56.2893 176.654 64.3358C177.451 68.3548 178.172 72.3654 179.045 76.4014C179.914 80.4187 181.016 84.3822 182.344 88.2719C184.933 96.0642 188.332 103.564 192.484 110.648Z" fill="#263238"/>
<path d="M211.158 274.613H144.818C144.253 272.403 143.688 270.187 143.123 267.966C142.755 266.507 142.385 265.052 142.012 263.599C142.012 263.506 141.97 263.421 141.944 263.328L140.494 257.63C140.443 257.443 140.392 257.257 140.35 257.07C139.985 255.62 139.612 254.17 139.256 252.737C138.329 249.137 137.419 245.573 136.526 242.045C136.187 240.706 135.848 239.358 135.5 238.035C135.491 237.972 135.477 237.909 135.458 237.848C135.246 237 135.025 236.152 134.813 235.305C133.431 229.895 132.1 224.646 130.828 219.627C130.676 219.033 130.523 218.465 130.37 217.889C129.251 213.471 128.183 209.266 127.174 205.314L126.75 203.619C126.504 202.644 126.266 201.694 126.021 200.761C125.8 199.913 125.588 199.082 125.385 198.268C124.774 195.869 124.189 193.613 123.689 191.485C123.604 191.138 123.511 190.807 123.434 190.476C122.671 187.517 122.002 184.863 121.417 182.574C121.306 182.167 121.213 181.777 121.111 181.395C120.899 180.547 120.696 179.767 120.518 179.047C120.424 178.682 120.34 178.334 120.246 178.004L119 173.111H182.202C182.202 173.111 197.286 225.104 211.158 274.613Z" fill="#37474F"/>
<path d="M155.318 274.605H153.452C152.322 270.156 151.214 265.708 150.129 261.259L148.857 256.172C147.907 252.333 146.952 248.484 145.991 244.623C145.991 244.454 145.915 244.276 145.872 244.106C141.328 225.698 136.868 207.248 132.832 188.721C132.781 188.501 132.73 188.281 132.688 188.06C132.688 188.035 132.697 188.012 132.715 187.994C132.732 187.977 132.756 187.967 132.781 187.967C132.806 187.967 132.829 187.977 132.847 187.994C132.864 188.012 132.874 188.035 132.874 188.06L132.933 188.281C138.021 206.434 142.777 224.74 147.348 243.038C147.441 243.351 147.517 243.674 147.594 243.987C147.975 245.497 148.348 246.989 148.73 248.49C149.255 250.618 149.798 252.729 150.332 254.874C152.017 261.437 153.679 268.014 155.318 274.605Z" fill="#263238"/>
<path d="M180.15 173.148L171.171 218.087L170.764 220.096L170.128 223.293L169.111 228.38L168.17 233.12V233.332L167.991 234.18L159.945 274.506H144.818C144.253 272.295 143.688 270.08 143.123 267.858C142.755 266.4 142.385 264.944 142.012 263.491C142.012 263.398 141.97 263.313 141.944 263.22C141.452 261.321 140.977 259.422 140.494 257.522C140.443 257.336 140.392 257.149 140.35 256.963C139.985 255.513 139.612 254.063 139.256 252.63C138.329 249.029 137.419 245.465 136.526 241.938C136.187 240.598 135.848 239.25 135.5 237.927C135.491 237.864 135.477 237.802 135.458 237.741C135.246 236.893 135.025 236.045 134.813 235.197C133.431 229.788 132.1 224.539 130.828 219.52L130.37 217.781C129.251 213.364 128.183 209.158 127.174 205.207C127.03 204.639 126.894 204.079 126.75 203.511C126.504 202.536 126.266 201.586 126.021 200.654C125.8 199.806 125.588 198.975 125.385 198.161C124.774 195.761 124.189 193.506 123.689 191.378C123.604 191.03 123.511 190.7 123.434 190.369C122.671 187.41 122.002 184.756 121.417 182.466C121.306 182.059 121.213 181.669 121.111 181.288C120.899 180.44 120.696 179.66 120.518 178.939C120.424 178.575 120.34 178.227 120.246 177.896L119 173.004L180.15 173.148Z" fill="#263238"/>
<path d="M180.172 173.121C180.172 173.477 179.909 177.225 179.324 182.948C178.117 194.988 176.134 206.937 173.389 218.721C172.693 221.595 171.93 224.436 171.099 227.2C170.54 229.116 169.929 231.015 169.276 232.813L169.225 232.974L168.123 233.39C162.162 235.851 156.399 238.768 150.885 242.114C150.885 242.114 150.885 242.242 150.885 242.471C150.843 243.725 150.665 248.228 150.411 254.824C150.326 256.792 150.25 258.945 150.156 261.251C150.004 265.279 149.826 269.79 149.647 274.597H86.1231C86.971 263.922 87.768 253.086 88.582 242.581C88.582 242.581 82.6467 225.954 83.2911 217.551C84.8936 197.201 94.017 173.13 94.017 173.13L180.172 173.121Z" fill="#37474F"/>
<path d="M158.487 217.789L158.563 212.702C158.614 209.599 158.826 206.495 158.945 203.375C159.216 196.346 159.53 189.292 160.123 182.28C160.123 182.11 160.42 182.11 160.428 182.28C160.53 185.069 160.589 187.85 160.581 190.64C160.572 193.429 160.666 196.219 160.657 199C160.657 204.528 160.657 210.023 160.428 215.585C160.352 217.713 159.58 221.622 162.65 221.859C165.092 222.046 166.508 219.477 166.94 217.433C167.34 214.884 167.533 212.306 167.517 209.726C167.624 206.9 167.684 204.093 167.695 201.306C167.695 195.193 167.839 189.097 168 182.992C168 182.814 168.28 182.831 168.305 182.992C169.007 189.149 169.401 195.338 169.484 201.535C169.484 204.503 169.484 207.471 169.357 210.447C169.263 213.219 169.314 216.178 168.458 218.849C167.788 220.944 166.27 222.953 164.049 223.504C164.004 223.5 163.958 223.5 163.913 223.504C163.943 223.52 163.969 223.543 163.988 223.571C164.007 223.599 164.019 223.632 164.023 223.665C164.117 224.64 164.278 225.616 164.303 226.599C164.329 227.583 164.303 228.558 164.218 229.524C164.176 230.518 164.057 231.508 163.862 232.483C163.776 232.951 163.66 233.413 163.515 233.866C163.362 234.34 163.108 234.713 162.913 235.18C162.896 235.215 162.868 235.245 162.834 235.263C162.799 235.281 162.759 235.288 162.72 235.281C162.682 235.274 162.646 235.255 162.62 235.226C162.593 235.197 162.577 235.16 162.574 235.12C162.574 234.959 162.574 234.798 162.523 234.646C162.527 234.617 162.527 234.589 162.523 234.561C162.486 234.28 162.467 233.996 162.463 233.713C162.463 233.238 162.514 232.763 162.548 232.288C162.624 231.339 162.752 230.381 162.879 229.44C163.006 228.498 163.074 227.54 163.184 226.591C163.294 225.641 163.481 224.649 163.566 223.665C163.575 223.629 163.596 223.596 163.625 223.572C162.75 223.735 161.845 223.626 161.034 223.259C160.223 222.892 159.544 222.285 159.089 221.52C158.573 220.348 158.366 219.064 158.487 217.789Z" fill="#263238"/>
<path d="M145.473 244.42C147.467 242.894 149.566 241.511 151.756 240.282C154.059 238.887 156.453 237.647 158.92 236.568C163.753 234.474 168.739 233.041 173.725 231.388C173.869 231.337 173.971 231.591 173.826 231.642C168.993 233.567 164.364 236.119 159.7 238.425C157.403 239.553 155.079 240.621 152.739 241.656C150.399 242.69 148.059 243.894 145.659 244.776C145.473 244.818 145.329 244.538 145.473 244.42Z" fill="#263238"/>
<path d="M107.766 202.32C111.158 202.32 121.205 202.447 126.42 197.563C128.624 195.494 129.811 192.475 130.769 189.72C131.862 186.608 132.746 183.427 133.415 180.198C133.415 180.037 133.678 180.096 133.686 180.24C133.762 183.902 133.291 187.554 132.287 191.076C131.439 194.053 130.362 197.385 127.954 199.479C125.546 201.573 121.968 202.455 118.721 202.871C115.075 203.295 111.39 203.243 107.758 202.718C107.705 202.717 107.654 202.695 107.618 202.657C107.581 202.619 107.561 202.567 107.563 202.515C107.564 202.462 107.586 202.411 107.624 202.375C107.662 202.338 107.713 202.318 107.766 202.32Z" fill="#263238"/>
<path d="M189.172 201.841C187.646 201.943 183.127 202.418 180.422 197.737C179.277 195.745 178.523 192.777 177.878 190.064C177.141 186.994 176.53 183.857 175.971 180.652C175.971 180.499 175.843 180.559 175.852 180.703C176.089 184.312 176.568 187.901 177.285 191.446C177.878 194.388 178.633 197.669 179.871 199.679C180.334 200.483 180.971 201.174 181.735 201.701C182.5 202.227 183.372 202.576 184.289 202.723C185.946 203.028 187.657 202.848 189.215 202.206C189.308 202.163 189.283 201.833 189.172 201.841Z" fill="#263238"/>
<path d="M103.191 178.489C103.106 178.803 94.8388 209.963 95.2204 217.492C95.6019 225.022 100.019 240.259 100.036 240.386C100.053 240.513 99.2479 253.859 98.0523 274.59H96.4413L98.4169 240.572C98.2304 239.445 93.974 224.971 93.6009 217.594C93.1939 209.777 101.232 179.337 101.614 178.048C101.708 177.89 101.851 177.766 102.021 177.696C102.192 177.626 102.381 177.614 102.559 177.661C102.737 177.708 102.895 177.812 103.009 177.956C103.123 178.101 103.187 178.279 103.191 178.464V178.489Z" fill="#263238"/>
<path d="M159.497 82.8617C192.082 111.58 222.352 143.062 224.87 159.317C228.364 181.786 214.594 188.187 208.396 188.315C191.505 188.671 160.065 120.576 149.094 94.5627C138.453 69.3123 152.341 76.5957 159.497 82.8617Z" fill="#009247"/>
<path d="M181.817 173.125L177.272 144.568C177.272 144.568 188.583 132.867 182.732 120.607C179.782 114.392 159.695 84.1472 148.969 76.5161C138.905 69.3768 126.975 75.3036 122.506 83.0279C111.229 102.521 100.52 124.939 94 173.151L181.817 173.125Z" fill="#009247"/>
<path d="M163.891 140.865C159.313 141.36 154.778 142.196 150.325 143.366C148.12 143.976 145.966 144.689 143.813 145.443C142.744 145.816 141.659 146.155 140.574 146.495C139.449 146.877 138.281 147.122 137.097 147.224C137.08 147.229 137.066 147.24 137.055 147.255C137.045 147.269 137.039 147.286 137.039 147.304C137.039 147.322 137.045 147.34 137.055 147.354C137.066 147.369 137.08 147.379 137.097 147.385C138.229 147.42 139.363 147.378 140.489 147.258C141.568 147.107 142.636 146.883 143.686 146.588C145.924 145.986 148.129 145.291 150.367 144.672C154.861 143.417 159.363 142.128 163.933 141.238C164.171 141.195 164.103 140.839 163.891 140.865Z" fill="#263238"/>
<path d="M175.269 144.705C171.497 144.385 167.709 144.278 163.924 144.382C162.025 144.442 160.151 144.611 158.269 144.832C157.37 144.942 156.471 145.061 155.573 145.196C154.674 145.332 153.622 145.62 152.639 145.748C152.537 145.748 152.537 145.926 152.639 145.909C153.571 145.815 154.521 145.909 155.462 145.832L158.286 145.705C160.177 145.62 162.067 145.553 163.95 145.451C167.731 145.247 171.488 145.086 175.269 145.018C175.305 145.01 175.336 144.99 175.359 144.962C175.381 144.933 175.394 144.898 175.394 144.862C175.394 144.825 175.381 144.79 175.359 144.761C175.336 144.733 175.305 144.713 175.269 144.705Z" fill="#263238"/>
<path d="M121.409 80.0695C91.037 103.895 61.208 145.078 61.0045 168.107C60.7841 190.839 68.7034 188.634 70.9503 188.456C84.6863 187.557 117.034 124.279 126.912 98.4858C136.671 72.9133 128.87 74.1766 121.409 80.0695Z" fill="#009247"/>
<path d="M89.1719 170.723C90.7659 167.857 92.4024 165.025 93.9455 162.143L98.6768 153.536C101.797 147.788 104.968 142.064 108.004 136.265C111.039 130.465 114.168 124.733 117.152 118.917C118.662 116.017 120.131 113.097 121.562 110.158C123.045 107.241 124.394 104.265 125.801 101.289C123.636 107.481 121.128 113.547 118.289 119.459C115.508 125.395 112.481 131.22 109.445 137.028C106.41 142.836 103.128 148.517 99.7791 154.147C96.4299 159.777 92.9535 165.365 89.1719 170.723Z" fill="#263238"/>
<path d="M122.586 108.911C123.147 107.88 123.773 106.886 124.46 105.935C124.799 105.468 125.121 104.994 125.486 104.544C125.85 104.095 126.19 103.611 126.596 103.162C126.324 104.329 125.817 105.429 125.104 106.393C124.427 107.38 123.573 108.233 122.586 108.911Z" fill="#263238"/>
<path d="M215.376 126.047C213.782 115.372 210.593 100.492 206.744 97.4139C202.691 94.1834 188.014 83.3812 183.791 81.9737C179.569 80.5662 160.746 73.6389 157.32 75.6654C154.581 77.2933 157.931 84.5089 166.893 87.8836C174.761 90.8512 178.831 93.6493 181.087 94.5989C183.342 95.5486 188.964 102.9 187.497 106.198C186.649 108.14 181.044 110.438 177.534 108.92C174.024 107.402 173.083 100.441 169.055 97.2528C165.028 94.0647 157.99 94.5141 157.6 96.4049C157.21 98.2957 159.55 99.1691 163.221 105.596C165.587 109.725 165.85 119.697 171.183 126.794C173.863 130.355 178.577 139.868 178.577 139.868L215.376 126.047Z" fill="#F3A398"/>
<path d="M165.295 94.3451C164.007 94.1671 162.794 93.6326 161.793 92.8019C161.476 92.5148 161.233 92.1549 161.085 91.7532C160.938 91.3515 160.89 90.92 160.945 90.4957C160.952 90.1828 161.069 89.8824 161.276 89.6478C161.344 89.5969 161.276 89.5121 161.208 89.5799C161.111 89.7315 161.003 89.876 160.886 90.0124C160.808 90.1382 160.742 90.2717 160.691 90.4109C160.595 90.683 160.549 90.9702 160.555 91.2588C160.582 91.9137 160.834 92.5394 161.268 93.0309C161.784 93.5608 162.417 93.9631 163.116 94.206C163.815 94.4488 164.561 94.5255 165.295 94.4299C165.354 94.4469 165.354 94.3536 165.295 94.3451Z" fill="#263238"/>
<path d="M206.743 97.4188C203.284 92.1194 194.491 82.5976 185.843 79.384C180.001 77.2049 160.067 87.1762 160.694 91.0002C161.322 94.8242 164.739 94.7988 169.801 94.1374C171.641 93.9 181.366 90.2964 183.053 92.3229C185.478 95.2397 188.624 105.27 188.624 105.27L206.743 97.4188Z" fill="#F3A398"/>
<path d="M161.179 89.4829C163.613 85.3537 169.022 83.1068 174.423 81.3262C174.436 81.331 174.447 81.3397 174.455 81.351C174.463 81.3624 174.467 81.3759 174.467 81.3898C174.467 81.4036 174.463 81.4171 174.455 81.4285C174.447 81.4399 174.436 81.4485 174.423 81.4534C173.05 81.9112 164.248 86.0574 161.196 89.5423C161.205 89.5847 161.154 89.5168 161.179 89.4829Z" fill="#263238"/>
<path d="M206.736 97.4063C203.277 92.107 194.484 82.5851 185.836 79.3716C179.994 77.1925 164.274 89.8431 164.901 93.6671C165.529 97.4911 170.446 97.7455 175.856 95.7953C177.603 95.1679 183.487 90.9623 185.132 92.9888C187.557 95.9055 193.467 103.164 193.467 103.164L206.736 97.4063Z" fill="#F3A398"/>
<path d="M190.084 98.6537C189.524 97.8058 189.338 97.526 188.77 96.7035C188.202 95.881 187.617 95.0586 186.998 94.287C186.504 93.5581 185.887 92.921 185.175 92.4047C184.441 92.0008 183.596 91.846 182.767 91.9638C180.884 92.1588 179.197 93.3713 177.611 94.304C175.839 95.3469 172.151 97.0427 169.319 96.7713C168.538 96.7397 167.772 96.5432 167.072 96.1948C166.543 95.9572 166.08 95.5932 165.724 95.1349C164.469 93.066 165.978 90.6665 167.53 88.9622C170.43 85.7911 174.313 83.4763 178.137 81.5601C179.07 81.0937 180.011 80.6443 180.961 80.2034C182.005 79.626 183.162 79.2791 184.352 79.186C186.319 79.1436 189.567 81.1107 190.576 81.7296C190.652 81.772 190.711 81.6449 190.635 81.6025C189.414 80.8563 186.396 78.4313 183.216 78.6264C182.057 78.8129 180.94 79.2033 179.918 79.7795C178.815 80.2628 177.73 80.7885 176.653 81.3396C174.557 82.4002 172.544 83.619 170.633 84.9856C168.725 86.255 167.065 87.8611 165.732 89.7253C165.176 90.5563 164.855 91.5227 164.804 92.5217C164.753 93.5206 164.974 94.5146 165.444 95.3977C166.292 96.8307 168.183 97.1614 169.039 97.2546C169.869 97.3648 170.71 97.3648 171.54 97.2546C173.389 96.8163 175.205 96.2496 176.975 95.5589C178.671 94.8551 180.231 93.6765 181.995 93.1254C182.828 92.8384 183.741 92.887 184.539 93.261C185.266 93.7408 185.918 94.3267 186.472 94.9992C187.673 96.152 188.763 97.4153 189.728 98.7724C190.025 99.1454 190.287 99.0267 190.084 98.6537Z" fill="#263238"/>
<path d="M209.322 102.035C208.041 99.4917 205.828 89.071 203.777 85.8829C201.725 82.6948 192.389 71.6976 188.09 72.2233C182.689 72.8847 188.43 82.5761 191.304 86.5612C194.178 90.5464 193.771 97.3719 193.771 97.3719L209.322 102.035Z" fill="#F3A398"/>
<path d="M187.283 79.9962C188.3 81.2511 189.207 82.6501 190.098 84.0068C191.011 85.2659 191.833 86.5892 192.557 87.9664C193.163 89.3777 193.535 90.8783 193.659 92.4094C193.735 93.164 193.769 93.9102 193.786 94.6648C193.803 95.4195 193.727 96.3606 193.786 97.1492C193.786 97.234 193.65 97.2509 193.65 97.1492C193.531 95.6451 193.319 94.15 193.014 92.6723C192.733 91.1366 192.263 89.6415 191.615 88.2208C190.318 85.3973 188.444 82.896 187.122 80.0895C187.045 79.9369 187.206 79.8605 187.283 79.9962Z" fill="#263238"/>
<path d="M193.69 98.5137C194.064 101.108 193.317 103.737 192.385 106.145C191.907 107.361 191.341 108.54 190.689 109.672C190.026 110.791 189.29 111.864 188.484 112.886C186.934 114.832 185.635 116.966 184.618 119.236C183.657 121.571 182.985 124.014 182.617 126.511C182.4 123.917 182.688 121.305 183.465 118.821C184.309 116.335 185.568 114.01 187.187 111.944C188.728 109.978 190.064 107.858 191.172 105.619C192.283 103.355 193.402 101.066 193.69 98.5137Z" fill="#263238"/>
<path d="M206.84 187.546C196.292 186.121 189.398 168.485 177.358 137.52C175.239 132.076 202.795 98.6098 206.543 103.604C211.266 109.895 223.984 144.922 225.315 154.478C227.952 173.267 219.151 189.208 206.84 187.546Z" fill="#F3A398"/>
<path d="M183.711 154.766L217.703 121.74C217.703 121.74 227.361 150.162 226.453 162.075C225.546 173.988 221.366 187.562 207.054 188.309C196.319 188.868 183.711 154.766 183.711 154.766Z" fill="#009247"/>
<path d="M194.708 177.627C193.479 175.889 192.385 174.066 191.317 172.234C190.248 170.403 189.265 168.529 188.307 166.638C187.348 164.747 186.467 162.806 185.687 160.83C184.851 158.871 184.19 156.843 183.711 154.768C184.61 156.692 185.559 158.575 186.517 160.457L189.375 166.104C190.299 168.003 191.24 169.894 192.122 171.81C193.004 173.727 193.911 175.651 194.708 177.627Z" fill="#263238"/>
<path d="M191.027 160.541C192.672 158.726 194.486 157.047 196.233 155.343C197.979 153.639 199.76 151.951 201.558 150.256C205.136 146.915 208.745 143.602 212.385 140.318C213.386 139.419 214.389 138.529 215.395 137.647C216.481 136.706 217.685 135.901 218.787 134.951C218.805 134.942 218.826 134.939 218.846 134.943C218.867 134.947 218.885 134.958 218.898 134.973C218.912 134.989 218.92 135.008 218.921 135.029C218.923 135.049 218.917 135.07 218.906 135.087C218.058 135.935 217.286 136.876 216.438 137.732C215.59 138.589 214.658 139.487 213.75 140.352C211.981 142.048 210.2 143.73 208.409 145.397C204.822 148.738 201.227 152.07 197.539 155.301C195.453 157.124 193.409 159.023 191.222 160.719C191.198 160.744 191.165 160.76 191.13 160.762C191.095 160.763 191.061 160.751 191.035 160.727C191.009 160.704 190.994 160.671 190.992 160.636C190.991 160.601 191.003 160.566 191.027 160.541Z" fill="#263238"/>
<path d="M130.384 77.4487C130.63 79.1445 137.795 91.0998 147.291 90.5233C152.777 90.1672 149.046 79.1445 149.046 79.1445L153.82 64.0859L135.616 50.1719C135.616 50.1719 130.291 76.711 130.384 77.4487Z" fill="#F3A398"/>
<path d="M133.664 60.1105C134.884 64.0588 136.903 67.7139 139.596 70.8486C142.288 73.9833 145.597 76.5305 149.316 78.3318L153.827 64.121L135.614 50.207C135.614 50.207 134.732 54.6754 133.664 60.1105Z" fill="#263238"/>
<path d="M175.275 42.9751C175.817 68.8359 160.386 72.0834 154.806 72.1936C149.719 72.2953 132.49 71.9901 129.276 46.3158C126.063 20.6415 137.925 12.2134 149.49 11.374C161.055 10.5346 174.74 17.1058 175.275 42.9751Z" fill="#F3A398"/>
<path d="M169.231 40.8985C168.658 40.7636 168.092 40.5994 167.535 40.4068C166.891 40.3215 166.294 40.023 165.839 39.5589C165.727 39.3894 165.675 39.1874 165.69 38.9848C165.705 38.7821 165.788 38.5904 165.924 38.4397C166.238 38.1822 166.614 38.0127 167.015 37.9486C167.416 37.8846 167.827 37.9282 168.205 38.0751C169.02 38.258 169.738 38.735 170.223 39.4147C170.321 39.5749 170.37 39.7598 170.367 39.9474C170.363 40.135 170.305 40.3175 170.201 40.4735C170.097 40.6295 169.95 40.7524 169.778 40.8277C169.606 40.903 169.416 40.9276 169.231 40.8985Z" fill="#263238"/>
<path d="M151.482 40.1368C152.076 40.0888 152.668 40.0067 153.254 39.891C153.89 39.8985 154.511 39.6925 155.017 39.3059C155.154 39.1552 155.236 38.9634 155.251 38.7608C155.267 38.5582 155.214 38.3562 155.102 38.1867C154.831 37.8834 154.483 37.6588 154.095 37.5365C153.707 37.4141 153.294 37.3986 152.898 37.4914C152.064 37.5427 151.282 37.9096 150.71 38.5174C150.587 38.6619 150.509 38.8387 150.485 39.0266C150.46 39.2145 150.491 39.4055 150.572 39.5766C150.654 39.7476 150.783 39.8915 150.944 39.9909C151.106 40.0903 151.292 40.141 151.482 40.1368Z" fill="#263238"/>
<path d="M154.705 46.9259C154.705 46.858 154.57 47.0022 154.561 47.0785C154.561 48.8336 154.197 50.8516 152.577 51.318C152.526 51.318 152.526 51.4197 152.577 51.4197C154.544 51.2586 154.96 48.6217 154.705 46.9259Z" fill="#263238"/>
<path d="M153.226 44.9895C150.411 44.6249 149.894 50.2973 152.506 50.628C155.117 50.9587 155.592 45.2863 153.226 44.9895Z" fill="#263238"/>
<path d="M152.082 45.2336C151.556 45.5134 151.022 46.0307 150.386 46.0815C149.75 46.1324 149.216 45.4456 148.818 44.8351C148.775 44.7758 148.724 44.8351 148.716 44.8945C148.606 45.9798 148.919 47.1245 150.073 47.3958C151.226 47.6671 151.963 46.7429 152.336 45.7C152.438 45.3947 152.294 45.081 152.082 45.2336Z" fill="#263238"/>
<path d="M165.338 47.086C165.338 47.0182 165.465 47.1878 165.457 47.2556C165.228 49.0023 165.262 51.0457 166.797 51.7834C166.839 51.7834 166.797 51.8936 166.797 51.8766C164.855 51.4188 164.838 48.7055 165.338 47.086Z" fill="#263238"/>
<path d="M167.073 45.389C169.914 45.4568 169.617 51.1293 166.946 51.0784C164.275 51.0275 164.691 45.3381 167.073 45.389Z" fill="#263238"/>
<path d="M168.248 45.8573C168.681 46.1795 169.096 46.756 169.622 46.8239C170.148 46.8917 170.741 46.3066 171.174 45.747C171.216 45.6877 171.258 45.747 171.258 45.8149C171.258 46.9002 170.792 48.0109 169.741 48.1551C168.689 48.2992 168.13 47.3072 167.935 46.2219C167.901 46.0184 168.045 45.7216 168.248 45.8573Z" fill="#263238"/>
<path d="M154.672 60.4469C155.036 60.9133 155.375 61.5323 156.003 61.6679C156.653 61.7446 157.311 61.6839 157.936 61.4899C157.995 61.4899 158.046 61.5407 158.004 61.5831C157.707 61.8934 157.333 62.1178 156.919 62.2327C156.506 62.3476 156.069 62.3488 155.655 62.236C155.308 62.0962 155.011 61.8561 154.801 61.5466C154.591 61.237 154.478 60.8719 154.477 60.4978C154.477 60.3961 154.621 60.3791 154.672 60.4469Z" fill="#263238"/>
<path d="M162.527 54.6613C162.527 54.6613 162.688 57.3067 162.587 58.5447C162.587 58.6634 162.273 58.6973 161.857 58.6888H161.807C160.729 58.7957 159.642 58.6057 158.665 58.1394C157.688 57.6731 156.856 56.9482 156.261 56.0433C156.185 55.9162 156.355 55.7975 156.456 55.8823C157.952 57.0846 159.796 57.7716 161.713 57.8409C161.824 57.5102 161.289 53.3131 161.493 53.3131C162.446 53.4695 163.373 53.7548 164.249 54.161C164.087 48.6242 163.028 43.1384 162.951 37.6525C162.943 37.6098 162.953 37.5656 162.977 37.5299C163.002 37.4941 163.04 37.4696 163.083 37.4617C163.125 37.4538 163.17 37.4632 163.205 37.4879C163.241 37.5125 163.266 37.5504 163.273 37.5931C164.783 43.2401 165.113 49.6078 165.436 55.3142C165.512 56.0349 163.011 54.9072 162.527 54.6613Z" fill="#263238"/>
<path d="M129.891 45.7389C136.258 46.5868 141.388 27.4413 141.99 25.0842C141.693 26.5934 140.116 34.5637 140.668 34.9876C141.347 35.1035 142.04 35.1035 142.719 34.9876C142.886 34.0299 143.124 33.0861 143.432 32.1641C143.559 31.7317 143.432 33.1561 143.432 34.9282C143.805 34.9282 144.212 34.835 144.653 34.8011C144.931 32.742 145.481 30.729 146.289 28.8149C146.603 28.0942 146.23 31.5282 146.45 34.623C151.012 34.1821 157.583 33.7073 163.51 34.5043C165.104 34.7163 166.461 34.9622 167.656 35.225C168.063 32.8679 168.216 30.2987 168.3 30.8753C168.531 32.3814 168.613 33.9064 168.546 35.4285C169.191 35.5811 169.784 35.7253 170.318 35.8694C171.048 32.5626 170.361 26.958 170.759 27.8653C171.92 30.6482 172.541 33.6262 172.591 36.641C174.795 37.4889 175.347 38.0146 175.516 37.438C175.804 36.3866 176.084 26.8224 169.962 18.7334C163.315 9.94922 147.849 5.4045 137.013 15.3418C137.013 15.3418 128.873 18.8861 126.414 26.3645C123.955 33.8429 126.202 45.2387 129.891 45.7389Z" fill="#263238"/>
<path d="M133.678 46.4575C133.678 46.4575 128.591 38.0294 124.784 39.8015C120.977 41.5736 124.462 53.5289 128.65 55.4113C129.171 55.689 129.743 55.8585 130.331 55.9095C130.919 55.9606 131.511 55.8922 132.072 55.7084C132.632 55.5247 133.15 55.2293 133.594 54.8402C134.038 54.4511 134.398 53.9762 134.653 53.4441L133.678 46.4575Z" fill="#F3A398"/>
<path d="M125.85 43.2012C125.839 43.2056 125.829 43.2132 125.823 43.223C125.816 43.2328 125.813 43.2444 125.812 43.2563C125.813 43.2682 125.816 43.2797 125.823 43.2896C125.829 43.2994 125.839 43.307 125.85 43.3114C128.784 44.7359 130.183 47.6272 131.107 50.5948C130.259 49.4247 129.106 48.7295 127.546 49.6961C127.461 49.7469 127.546 49.8741 127.613 49.8656C128.153 49.7316 128.721 49.7681 129.238 49.97C129.756 50.172 130.199 50.5295 130.505 50.9933C131.011 51.7754 131.434 52.608 131.768 53.4777C131.887 53.7575 132.387 53.6473 132.302 53.3335C132.298 53.3083 132.298 53.2825 132.302 53.2572C132.574 49.4671 129.945 43.8625 125.85 43.2012Z" fill="#263238"/>
<path d="M156.097 89.6056L141.751 133.968C141.182 135.256 141.751 136.376 143.082 136.46L166.356 137.987C167.071 137.98 167.768 137.77 168.368 137.383C168.969 136.996 169.447 136.447 169.748 135.799L184.069 91.4371C184.637 90.1398 184.069 89.0206 182.746 88.8934L159.472 87.3672C158.754 87.381 158.056 87.5989 157.458 87.9953C156.861 88.3918 156.389 88.9504 156.097 89.6056Z" fill="#37474F"/>
<path d="M158.861 89.752L144.54 134.114C143.971 135.411 144.54 136.53 145.871 136.615L169.146 138.141C169.86 138.134 170.557 137.925 171.158 137.538C171.758 137.151 172.236 136.602 172.537 135.954L186.858 91.5835C187.426 90.2947 186.858 89.1755 185.535 89.0907L162.261 87.5645C161.545 87.5679 160.844 87.7756 160.242 88.1631C159.64 88.5506 159.161 89.1018 158.861 89.752Z" fill="#455A64"/>
<path d="M165.117 92.2307C165.084 92.6218 164.935 92.9942 164.69 93.3008C164.445 93.6075 164.115 93.8345 163.741 93.9533C163.367 94.0721 162.966 94.0772 162.589 93.968C162.212 93.8589 161.875 93.6403 161.623 93.34C161.37 93.0398 161.212 92.6713 161.168 92.2811C161.125 91.891 161.198 91.4968 161.379 91.1484C161.56 90.8 161.84 90.513 162.184 90.3238C162.528 90.1346 162.92 90.0517 163.311 90.0855C163.835 90.1308 164.319 90.3822 164.658 90.7844C164.997 91.1866 165.162 91.7068 165.117 92.2307Z" fill="#263238"/>
<path d="M67.7986 188.445C77.9733 189.844 90.6324 181.95 123.488 157.963C128.033 154.648 113.237 116.263 108.226 119.553C101.884 123.708 78.1599 141.183 76.5913 142.684C63.2962 155.309 60.9052 187.495 67.7986 188.445Z" fill="#F3A398"/>
<path d="M96.4688 131.155C96.4688 131.155 105.796 118.029 112.876 112.654C122.321 105.455 133.437 103.123 138.151 102.428C147.995 100.978 172.805 104.285 173.102 111.594C173.373 118.216 148.182 113.561 148.182 113.561C148.182 113.561 174.645 114.07 173.509 122.099C172.372 130.129 143.459 123.057 143.459 123.057C143.459 123.057 170.643 124.185 168.158 132.282C166.276 138.396 139.711 133.469 139.711 133.469C139.711 133.469 163.063 134.606 161.401 140.982C159.561 148.019 134.76 145.009 134.76 145.009C127.807 160.5 117.802 164.859 110.586 167.267C108.797 167.852 96.4688 131.155 96.4688 131.155Z" fill="#F3A398"/>
<path d="M139.032 112.803C142.144 112.743 145.29 112.675 148.359 112.896C151.428 113.116 154.566 113.456 157.635 113.964C161.661 114.556 165.607 115.606 169.395 117.093C162.476 114.948 151.377 113.973 148.274 113.744C145.171 113.515 142.085 113.142 138.947 112.896C138.939 112.913 138.956 112.803 139.032 112.803Z" fill="#263238"/>
<path d="M138.017 124C141.993 124.11 145.945 124.068 149.887 124.348C153.83 124.627 157.561 125.238 161.487 125.789C161.783 125.831 161.665 125.976 161.359 125.942C157.417 125.552 153.728 125.492 149.794 125.145C145.86 124.797 141.917 124.297 137.974 124.093C137.949 124.093 137.957 124 138.017 124Z" fill="#263238"/>
<path d="M135.432 133.4C141.52 133.248 147.616 134.248 153.585 135.317C153.882 135.376 153.704 135.545 153.399 135.512C147.37 134.757 142.656 134.129 135.44 133.612C135.322 133.638 135.305 133.4 135.432 133.4Z" fill="#263238"/>
<path d="M96.4519 125.936L109.399 173.113C109.399 173.113 74.6355 193.555 67.0044 188.154C59.3734 182.753 64.3421 155.502 73.0669 145.115C76.645 140.782 96.4519 125.936 96.4519 125.936Z" fill="#009247"/>
<path d="M96.8972 127.489L96.3885 125.937L96.5157 125.988C93.2343 128.667 89.9445 131.321 86.697 134.026C83.4496 136.731 80.1936 139.427 77.1073 142.285C75.5433 143.669 74.0706 145.153 72.6982 146.727C71.3852 148.348 70.2136 150.079 69.1964 151.9C67.1794 155.609 65.7655 159.616 65.0078 163.77C65.3424 159.504 66.4938 155.341 68.3994 151.51C69.3568 149.583 70.5165 147.764 71.8588 146.083C73.2395 144.441 74.7266 142.892 76.3103 141.445C79.456 138.588 82.7543 135.908 86.095 133.305C89.4357 130.702 92.8782 128.218 96.4224 125.886L96.5241 125.818V125.929L96.8972 127.489Z" fill="#263238"/>
<path d="M88.861 137.666C89.6496 139.981 90.2516 142.372 90.9045 144.729C91.5574 147.086 92.1933 149.46 92.7953 151.843C93.9993 156.591 95.1779 161.348 96.2886 166.121C96.5939 167.427 96.8991 168.733 97.1365 170.047C97.3739 171.361 97.5689 172.888 97.8827 174.287C97.8854 174.298 97.886 174.309 97.8843 174.321C97.8826 174.332 97.8787 174.343 97.8728 174.353C97.8609 174.373 97.8416 174.387 97.8191 174.393C97.7966 174.398 97.7728 174.395 97.7529 174.383C97.733 174.371 97.7187 174.352 97.7131 174.329C97.3994 173.167 96.9161 172.048 96.5769 170.887C96.2377 169.725 95.8901 168.487 95.5764 167.275C94.9489 164.906 94.3328 162.535 93.728 160.161C92.5155 155.413 91.3284 150.656 90.277 145.865C89.6835 143.169 89.0052 140.456 88.5812 137.725C88.5773 137.707 88.5771 137.688 88.5805 137.67C88.584 137.651 88.591 137.634 88.6012 137.618C88.6115 137.602 88.6247 137.588 88.6402 137.578C88.6557 137.567 88.6731 137.56 88.6915 137.556C88.7098 137.552 88.7288 137.552 88.7473 137.555C88.7657 137.559 88.7833 137.566 88.7991 137.576C88.8148 137.586 88.8284 137.599 88.839 137.615C88.8497 137.63 88.8571 137.648 88.861 137.666Z" fill="#263238"/>
<path d="M109.411 173.116C109.64 173.557 109.623 173.184 109.572 172.913C109.521 172.641 108.987 170.369 108.487 168.927C108.436 168.783 108.216 168.529 108.3 169.046C108.598 170.422 108.969 171.78 109.411 173.116Z" fill="#263238"/>
</svg>
